<?xml version="1.0" encoding="utf-8"?>
<!-- Generator: Adobe Illustrator 18.1.1, SVG Export Plug-In . SVG Version: 6.00 Build 0)  -->
<!DOCTYPE svg PUBLIC "-//W3C//DTD SVG 1.1//EN" "http://www.w3.org/Graphics/SVG/1.1/DTD/svg11.dtd">
<svg version="1.1" xmlns="http://www.w3.org/2000/svg" xmlns:xlink="http://www.w3.org/1999/xlink" x="0px" y="0px"
	 viewBox="0 -4 1000 658.5" enable-background="new 0 -4 1000 658.5" xml:space="preserve">
<g id="Layer_2" display="none">
	<rect x="-41" y="-40" display="inline" width="1082" height="810"/>
</g>
<g id="Layer_1">
	<polyline fill="none" stroke="#FFFFFF" stroke-width="5.9481" points="0.7,0 500,119 999.3,0 	"/>
	<polyline opacity="0.9" fill="none" stroke="#FFFFFF" stroke-width="5.9481" points="0.7,59.5 500,178.5 999.3,59.5 	"/>
	<polyline opacity="0.8" fill="none" stroke="#FFFFFF" stroke-width="5.9481" points="0.7,119 500,238 999.3,119 	"/>
	<polyline opacity="0.7" fill="none" stroke="#FFFFFF" stroke-width="5.9481" points="0.7,178.5 500,297.5 999.3,178.5 	"/>
	<polyline opacity="0.6" fill="none" stroke="#FFFFFF" stroke-width="5.9481" points="0.7,238 500,357 999.3,238 	"/>
	<polyline opacity="0.5" fill="none" stroke="#FFFFFF" stroke-width="5.9481" points="0.7,297.5 500,416.5 999.3,297.5 	"/>
	<polyline opacity="0.4" fill="none" stroke="#FFFFFF" stroke-width="5.9481" points="0.7,357 500,476 999.3,357 	"/>
	<polyline opacity="0.3" fill="none" stroke="#FFFFFF" stroke-width="5.9481" points="0.7,416.5 500,535.5 999.3,416.5 	"/>
	<polyline opacity="0.2" fill="none" stroke="#FFFFFF" stroke-width="5.9481" points="0.7,476 500,595 999.3,476 	"/>
	<polyline opacity="0.1" fill="none" stroke="#FFFFFF" stroke-width="5.9481" points="0.7,535.5 500,654.5 999.3,535.5 	"/>
</g>
</svg>
