<?xml version="1.0" encoding="utf-8"?>
<!-- Generator: Adobe Illustrator 18.1.0, SVG Export Plug-In . SVG Version: 6.00 Build 0)  -->
<!DOCTYPE svg PUBLIC "-//W3C//DTD SVG 1.1//EN" "http://www.w3.org/Graphics/SVG/1.1/DTD/svg11.dtd">
<svg version="1.1"
	 id="svg2206" xmlns:rdf="http://www.w3.org/1999/02/22-rdf-syntax-ns#" xmlns:cc="http://web.resource.org/cc/" xmlns:dc="http://purl.org/dc/elements/1.1/" xmlns:sodipodi="http://sodipodi.sourceforge.net/DTD/sodipodi-0.dtd" xmlns:inkscape="http://www.inkscape.org/namespaces/inkscape" xmlns:svg="http://www.w3.org/2000/svg" sodipodi:docname="NPS3.svg" sodipodi:version="0.32" inkscape:output_extension="org.inkscape.output.svg.inkscape" inkscape:export-ydpi="90" inkscape:version="0.45.1" inkscape:export-xdpi="90"
	 xmlns="http://www.w3.org/2000/svg" xmlns:xlink="http://www.w3.org/1999/xlink" x="0px" y="0px" viewBox="149 -232 553 720"
	 enable-background="new 149 -232 553 720" xml:space="preserve">
<sodipodi:namedview  width="553px" height="720px" inkscape:cx="247.51875" objecttolerance="10" gridtolerance="10000" borderopacity="1.0" bordercolor="#666666" pagecolor="#ffffff" guidetolerance="10" inkscape:zoom="0.49497475" inkscape:cy="419.99759" inkscape:window-height="581" inkscape:window-y="22" inkscape:window-x="534" inkscape:window-width="697" inkscape:pageopacity="0.0" inkscape:current-layer="layer1" inkscape:pageshadow="2" inkscape:document-units="px" inkscape:showpageshadow="false" id="base">
	</sodipodi:namedview>
<g id="layer1" inkscape:label="Layer 1" inkscape:groupmode="layer">
	<path id="path6716" fill="#FFFFFF" fill-opacity="0.9608" stroke="#99542C" stroke-width="10.2385" stroke-miterlimit="10.433" d="
		M642,188.1l0.2-0.5l0.2-0.3l0.2-0.5v-0.5l0.2-0.5l0.2-0.5l0.2-0.3l0.2-0.5l0.2-0.5l0.2-0.5l0.3-0.5l0.2-0.3l0.2-0.5l0.2-0.2v-0.2
		l0.2-0.2l0.2-0.3v-0.2l0.2-0.2c2.8-3.9,5.4-8.6,9.1-10.7c3.3-2.3,3.9-6.4,5.6-13.2c0.5-11.8,2.1-12.5,2.6-13.8
		c0.5-1.3,1.3-5.3,4.1-10.2c2-3.6,4.4-10.9,3.6-13c-1.8-3.6-3.3-6.7-5.1-13c-2.5-14.8-0.5-19.7,2.6-24.4c4.4-6.7,7.2-10.9,11.8-13.2
		c2.1-1,1.8-5.1,1.5-7.9c-1.2-7.2,1-6.6,2.1-10.4c1.3-3.8,2.3-8.9,2.3-10c0-1.3-0.7-4.8-1-6.4c-0.5-3-1-7.2-0.2-8.9
		c1.3-2.3,2.6-4.9,2.5-7.2c0-1,1.2-2.5,1.6-4.1c0.5-1.5,1.5-5.1,1.5-7.9c0-0.8,1-6.6,1.6-10.7c1.5-8.1,0.5-12-0.2-14.3
		c-0.7-3.3-2.6-4.9-2.5-6.1c0-1.5-0.3-6.1-0.7-8.9c-0.2-1.6,6.6-11,7.9-12.8c0.5-1-0.5-7.4-0.5-8.9c0-1.3-1.6-8.1-1.6-9.9
		c0-2,0.3-3.1,0.3-4.9c-0.2-2-0.3-4.8-0.5-8.4c-0.3-6.6,0.2-13.3,0.3-15.1c0-1.5-2.5-1.5-6.9-3.8c-4.4-2.3-14-11.8-15.6-12.5
		c-1.6-0.8-9.4-2.1-13.7-2.1c-3.9,0-12.7,2-16.6,2.6c-3.8,0.5-8.6-1.2-10.9-1.8c-2.3-0.7-6.4-1.8-8.2-1.5c-5.3,0.5-13.8,0.7-17.4,0
		c-4.3-0.8-7.9-2-10-3.3c-1.8-1.3-2.5-0.8-4.8-3c-1.8-1.6-2-2.6-3.5-2.8c-1.3-0.3-13.8-1.3-16.1-3.6c-2.3-2.3-5.4-6.3-7.2-15
		c-1.8-8.4,1.2-14.3,4.3-16c4.9-2.5,11.7-6.6,15.3-6.9c1.6-0.2-2-6.6-3.8-12.7c-0.8-2.3-4.3-1.8-12.2-10.5
		c-3.5-3.9-9.7-11.7-11.2-14.3c-1.6-2.6,0.2-4.1-1.5-4.3c-2.1-0.2-9.2,0.2-20.4-1.8c-11.2-2.1-18.4-5.3-21.9-6.3
		c-3.3-1-11.2-3.8-13.7-4.6c-2.5-0.8-7.4-2.8-11.8-4.4c-4.3-1.5-6.3-4.9-8.4-5.1c-2.3,0-10.5,5.8-20.4,7.1c-9.9,1.3-13.3-1-18.6-1.8
		c-5.6-0.8-10.7-1.8-17.3-2.3c-6.4-0.5-25.5,3-28.8,3.5c-3.3,0.3-7.9,2.6-12,2.6c-2.6,0-17.3,4.3-19.7,4.8c-2.6,0.5-6.3-0.8-8.1-0.2
		c-3,0.8-7.2,1.8-8.7,2.1c-1.2,0.3-20.4,6.7-23.9,7.4c-3.8,0.8-9.2,2.6-13.7,4.3c-3,1.3-4.8,3.3-7.2,4.9c-8.2,5.8-10.5,5.9-14.5,7.2
		c-2.6,0.8-3.9,1.8-9.5,2.1c-5.8,0.3-7.4,1.5-7.4,2.3c0,3.9-1.3,11.8,0.2,12.5c3.1,1.6,10.9,14.3,11.2,22.4c0.5,8.6-0.7,14.6-1,17.3
		c-0.3,2.3-0.7,3.6-1.8,4.9c-1,1.3-7.9,3.5-12,3.9c-4.3,0.2-6.4,0.3-21.4-3.6c-11.7-3-12.7-4.1-14.2-5.8c-1.2-1.8-4.1-3.3-6.1-4.3
		c-2.1-1-4.3-1.5-6.4-3.5c-2-1.8-11,2.6-23.5,3.6c-2.3,0.2-6.6,7.7-14.3,11.7c-6.1,3-8.9,4.1-10.9,5.6c-5.6,3.8-12.2,4.4-11.4,6.1
		c1.3,3.1-1.2,4.8-0.3,12.5c1.2,13-1.8,19.6-1.8,25.8c-0.2,3.1,3.5,6.9,5.1,8.2c1.5,1.3,4.4,5.8,5.3,9.1c0.7,3.3-0.5,14-2.1,22.9
		c-1.6,9.1-2.6,18.3-2.3,21.6c0.2,2.1,2.8,6.6,3.9,9.1c1.6,3,4.8,13.7,4.9,19.1c0.2,4.9-1.2,11.2-1.2,12.2c0,1,1.6,5.1,3.3,7.2
		c1.8,2.6,5.9,11.4,6.9,13.5c1.5,3,2,6.7,2,6.7s-0.5,4.3-0.7,6.9c-0.2,2.6-1.2,11.7-2.1,23.4c-0.8,11.4-0.8,20.9,0.2,21.9
		c1.3,1.3,3.8,3.5,4.8,4.9c0.8,1.6,8.1,14.2,8.9,16c0.8,2,2.6,6.9,3.3,10.4c0.7,3.6,1.6,10.7,2,12.5c0.5,2.5,3.5,17.6,3.9,20.1
		c0.7,3.1,1.8,11.7,2.3,15.1c0.3,3.9,0.7,10.4,1,11.7c0.3,1.2,1.3,3.5,2.5,6.1c1.3,3,3.6,11.7,4.1,13.7s-0.3,4.6,0.2,6.3
		c0.7,1.8,2.6,3.3,3.3,4.8c0.7,1.5,5.9,12,8.2,15.6c2.1,3.1,9.7,17.6,11.8,22.4c0.5,0.7,0.5,1.2,0.5,1.5c0,1.8,0.3,3.3,1.3,3.9
		c1,0.7,2.6,4.1,3.9,4.3c1.8,0.3,3.6,1.3,4.4,2.3c0.8,1.3,7.4,7.7,9.9,10.4c2.5,2.6,4.1,4.3,3.8,6.6c-0.3,1.8-0.2,4.8,0.8,5.8
		c1.8,1.8,4.6,3.3,9.9,10.2c4.4,5.9,6.1,10.9,8.4,15c1.3,2.5,3.3,9.4,3.3,11.2s1.2,3.1,2.1,4.1c1.2,1.5,4.1,3.9,6.3,4.9
		c1.2,0.5,4.4,3.5,7.4,6.9c3,3.3,5.4,6.1,6.7,13.8c0.5,2.3,0.5,4.3,1.3,4.4c0.8,0.2,2.8,0.7,3.3,1.6c0.7,0.8,0.7,2.1,2,3
		c3.8,2.6,4.3,5.3,4.8,7.1c0.2,1.6,1,6.4,1.5,8.4c0.2,1.5,7.9,9.7,9.9,12.7c1.6,2.6,4.1,3.1,9.7,6.3c5.4,3,5.8,4.9,6.1,6.4
		c0.3,1.6,0.2,9.4,0.7,10.2c1.3,1.8,2.1,1,4.3,3.6c2.1,2.6,4.9,6.4,6.3,8.2c1.3,1.8,12.5,8.7,18.6,14.3c1.5,1.5,5.1,5.3,7.6,7.1
		c1.8,1.2,4.3,2.3,6.3,3.3c2.1,1,5.3,2,11.5,6.4c1.5,0.8,5.1,2.6,7.2,3.9c2.6,1.6,10,5.8,12.8,5.8c5.8,0,8.7,2.3,12,1.5
		c13.8-2.6,16.9-4.6,20.1-7.6c2.8-3,7.6-9.5,9.1-10.7c1.6-1.5,6.4-7.1,10.4-9.7c10.9-10.5,9.7-8.4,16.5-12.8
		c3.6-2.5,6.9-3.3,9.1-6.4c3.3-5.4,8.4-13,9.2-16.3c0.7-2,1.8-2.5,2.6-4.6c0.7-1.8,0.3-3.3,2.6-4.3c1.8-0.8,6.1-5.8,8.4-6.9
		c1.5-0.8,0.3-5.3,2.1-7.2c1.2-1.5,6.6-5.1,11.4-8.6c9.1-6.4,15.5-15.1,18.9-18.4c3.6-3.8,1.8-9.2,0.7-10.9l2.6-3.9
		c0,0,4.8-5.3,7.6-8.2c2.8-2.6,10.4-12.2,12.3-14.2c1.6-1.5,0.7-9.7,1-12c0.2-2.5,5.6-6.6,7.4-8.4c1.8-1.8,2.6-3.5,2.8-6.9
		c0.3-3.3,2.6-17.9,3.5-20.6c0.5-1.3,1-2.3,1.6-3.3c1.5-2.3,3.1-3.9,4.6-5.6c1.8-2.1,10.9-13,15.1-16.8l0.8-0.5
		c2.1-1.5,0.8-3.1,0.8-5.1c0-1,0.8-3,2.1-5.1c1.2-2.3,2.8-5.1,4.1-6.4c3.8-4.3,3.1-6.7,9.4-11.4c2.3-1.6,1.5-6.6,1.5-6.6
		s-0.2-1.8,1.2-4.8c1.3-3,5.9-8.6,8.7-11.5c1.2-1.2,2.1-4.8,2.1-6.6c0-1.6-0.3-4.9,1.5-8.4c0.3-0.7,0.7-1.3,1.2-2
		C641.4,189.6,641.7,188.8,642,188.1z"/>
	<path id="polygon6556" fill="#FFFFFF" d="M-759.8,21.2L-759.8,21.2L-759.8,21.2z"/>
	<path id="path6642" fill="#FFFFFF" d="M259.6,191.9l0.2-0.7c-0.2-1.3-2.3-1.3-2.6-2.1c-0.8-2.8-2.1-3.3-2.8-3.9
		c-1.6-1.5-3.3-0.7-4.1-1c-0.8-0.3-2-0.7-1.5-2.8c0-0.3-0.2-0.5-0.3-0.3l-1.2,0.2l-1.3-0.2l-1.2,0.2c0,0-2.8,0-7.2,1.5
		c-1,0-2.3,1.2-3.9,1.2c-1.6-0.2-3.5,1.6-5.3,1.6c-1.3,0.2-4.8,4.6-7.6,5.1c-1.6,0.2,0,0.3-9.4,3.8c-5.3,1.8-3.8,1.5-8.2,3.9
		c1,0.3,5.1,0.2,8.6-0.2c6.1-0.5,6.3-0.5,7.6-0.8c6.1-0.8,15.6-1.3,19.4-2.1c2.8-0.7,4.8,1,7.4,0.2c1.2-0.5,3-0.5,3.8-0.5
		c1.3-0.2,1.6,0,2.5-0.2c0,0,4.1,0.2,4.9-0.5c1.3-0.7,1.8-1,2-1.5L259.6,191.9z"/>
	<path id="path6644" fill="#C56C39" d="M641.2,189.9v-0.2l0,0l0,0v-0.2h0.2v-0.2v-0.2l0.2-0.2l0,0V189v-0.2l0.2-0.2v-0.2v-0.2
		l0.2-0.2l0.2-0.2v-0.2c0.8-2.3,1.5-5.3,2.8-7.1c3-3.9,5.4-8.4,9.1-10.7c3.3-2.3,3.9-6.4,5.6-13.2c0.5-11.8,2.1-12.5,2.8-13.8
		c0.5-1.3,1.3-5.3,3.9-10.2c2-3.6,4.4-11,3.6-13c-1.8-3.6-3.3-6.7-5.1-13c-2.5-14.8-0.5-19.7,2.6-24.4c4.4-6.7,7.2-11,11.8-13.2
		c2.1-1,1.8-5.1,1.5-7.9c-1.2-7.2,1-6.6,2.3-10.4c1.2-3.8,2.1-8.7,2.1-10.2c0-1.3-0.7-4.4-1-6.3c-0.5-3-0.8-7.4-0.2-8.9
		c1.5-2.3,2.6-5.1,2.6-7.2c0-1,1-2.5,1.5-3.9c0.5-1.6,1.5-5.3,1.5-8.1c0-0.8,1.2-6.6,1.8-10.7c1.3-8.1,0.5-12-0.2-14.3
		c-0.8-3.5-2.6-4.9-2.6-6.1c0-1.5-0.3-6.1-0.7-8.9c-0.2-1.6,6.7-11,7.9-13c0.7-0.8-0.5-7.2-0.5-8.7c0-1.3-1.6-8.2-1.6-10
		c0-1.8,0.3-3,0.3-4.8c0-2-0.3-4.8-0.3-8.4c-0.3-6.6,0.2-13.3,0.2-15.1c0-1.5-2.5-1.5-6.9-3.8s-14-11.7-15.6-12.5
		c-1.6-0.7-9.4-2.1-13.5-2.1c-4.1,0-12.8,2-16.6,2.6c-3.9,0.5-8.7-1.2-10.9-1.8c-2.5-0.7-6.6-1.8-8.4-1.6
		c-5.3,0.7-13.8,0.8-17.3,0.2c-4.4-0.8-8.1-2-10.2-3.3c-1.8-1.3-2.5-0.8-4.6-2.8c-2-1.8-2.1-2.8-3.6-3c-1.3-0.3-13.8-1.3-16.1-3.6
		c-2.3-2.3-5.4-6.3-7.2-15c-1.8-8.2,1.2-14.3,4.3-16c4.9-2.5,11.7-6.6,15.3-6.9c1.6-0.2-2-6.4-3.8-12.7c-0.8-2.3-4.3-1.8-12.2-10.5
		c-3.5-3.9-9.5-11.7-11.2-14.3c-1.6-2.6,0.2-4.1-1.5-4.3c-2.1-0.2-9.2,0.2-20.4-2c-11-2-18.4-4.9-21.9-6.1c-3.3-1-11.2-3.6-13.7-4.6
		c-2.5-0.8-7.4-3-11.8-4.4c-4.3-1.6-6.3-4.9-8.4-5.1c-2.3,0-10.5,5.8-20.4,7.1c-9.9,1.3-13.2-1-18.6-1.8c-5.6-0.7-10.7-1.8-17.1-2.3
		c-6.6-0.5-25.5,3-28.8,3.5c-3.3,0.3-8.1,2.6-12.2,2.6c-2.6,0-17.3,4.3-19.7,4.8c-2.6,0.5-6.3-0.8-8.1-0.2c-2.8,0.8-7.2,1.8-8.6,2.1
		c-1.3,0.2-20.6,6.7-23.9,7.4c-3.9,0.8-9.4,2.6-13.8,4.3c-3,1.2-4.8,3.3-7.2,4.9c-8.2,5.8-10.5,6.1-14.5,7.2c-2.5,0.7-3.9,1.8-9.5,2
		c-5.8,0.3-7.4,1.5-7.2,2.6c-0.2,3.8-1.3,11.5,0,12.3c3.1,1.6,10.9,14.3,11.4,22.4c0.3,8.6-0.7,14.6-1.2,17.3
		c-0.3,2.1-0.7,3.6-1.6,4.9c-1.2,1.3-8.1,3.6-12.2,3.8c-4.3,0.3-6.4,0.5-21.4-3.3c-11.5-3.1-12.7-4.3-14-6.1
		c-1.3-1.6-4.3-3.1-6.3-4.1c-2.1-1-4.3-1.5-6.3-3.6c-2-1.6-11.2,2.8-23.7,3.8c-2.3,0.2-6.6,7.7-14.2,11.7c-6.1,3-9.1,4.1-11,5.6
		c-5.6,3.8-12,4.4-11.4,6.1c1.3,3.1-1.2,4.8-0.3,12.5c1.2,12.8-1.8,19.6-1.8,25.8c0,3.1,3.5,6.9,5.1,8.2c1.6,1.3,4.4,5.9,5.3,9.1
		c0.8,3.3-0.5,14-2.1,22.7c-1.6,9.4-2.6,18.4-2.3,21.7c0.2,2.3,2.8,6.6,4.1,9.1c1.5,3,4.6,13.5,4.8,19.1c0.3,5.1-1.2,11.2-1.2,12.2
		c0,1.2,1.8,5.1,3.3,7.2c1.8,2.5,5.9,11.4,7.1,13.5c1.5,3,1.8,6.6,1.8,6.6s-0.3,4.4-0.7,7.1c-0.2,2.6-1.2,11.8-2,23.4
		c-1,11.4-1,20.9,0.2,21.9c1.2,1.3,3.6,3.5,4.6,5.1c0.8,1.5,8.1,14,8.9,16c0.8,1.8,2.6,6.6,3.3,10.2c0.7,3.6,1.6,10.7,2.1,12.5
		c0.3,2.3,3.3,17.6,3.8,20.1c0.8,3.1,2,11.8,2.3,15.1c0.3,3.9,0.7,10.4,1,11.5h-0.2c4.3-2.5,3-2.1,8.2-3.9c9.4-3.5,7.7-3.6,9.4-3.8
		c2.8-0.5,6.3-4.9,7.6-5.1c1.6,0,3.6-1.8,5.1-1.8c1.6,0.2,3.1-1,3.9-1c4.6-1.5,7.2-1.5,7.2-1.5l7.6-1.5c3.1-0.5,79-27.5,93.1-33.1
		c14-5.6,1.2,4.1,19.6-2.6c18.3-6.7,30-13,30-13c4.6-1.5,27.3-13.2,27.3-13.2s5.1-2.6,9.4-2.3c5.3,0.3,9.1-0.2,10.7-0.3
		c1.5-0.3,2.6-0.8,7.1-0.7c4.6,0.2,6.4,0.8,10.2,0.2c3.5-0.5,3.9-3.1,5.6-3.6c1.5-0.3,3.5-1.5,4.3-2.5c2.1-2.8,4.4-2,5.4-3.8
		c1.8-3,4.1-2,9.1-5.9c1-0.8,5.9,0.3,7.6-0.7c1.8-0.8,8.9-6.4,10.4-7.2c1.6-1.2,2.6-3.3,4.6-3c4.3,1,4.9-0.3,7.1,1.6
		c3.1,3,10.2,7.9,10.5,8.6c1.3,3.5,6.6,3.6,6.7,8.2c0.2,2.5,2.5,2.1,2.1,5.9c-0.2,1,6.9-0.3,9.9,2.3c2,1.6,9.5,8.9,10.7,9.4
		c2,1.2,5.4,4.1,6.9,4.8c3.1,1.3,15.3,8.2,18.9,13c1.6,2.1,4.6,1.6,6.4,3c4.8,3.3,17.3,11,18.9,14c1.5,2.6,12.8,10.5,13.3,12.3
		c0.3,2.1,5.6,4.6,5.9,6.4c0.2,1.8,7.2,6.6,9.9,8.6c3.5,2.5,2.5,1.6,6.1,5.4L641.2,189.9z"/>
	<path id="path6646" fill="#99542C" d="M611.4,247.5l0.2-0.3l0.2-0.5l0.3-0.5l0.2-0.3l0.3-0.5l0.2-0.5l0.3-0.3l0.3-0.5l0.2-0.5
		l0.3-0.3l0.3-0.3l0.2-0.5l0.3-0.3v-0.2l0.2-0.2l0.2-0.2l0.2-0.2v-0.2l0.2-0.2c3.9-4.1,3.3-6.6,9.5-11.2c2.3-1.6,1.3-6.7,1.3-6.7
		s0-1.6,1.3-4.6c1.2-3,5.9-8.6,8.7-11.5c1-1.2,2-4.9,2-6.7c0-1.5-0.2-4.8,1.6-8.4v-0.5c-3.6-3.8-2.5-2.6-5.9-5.1
		c-2.5-2-9.7-6.9-9.9-8.6c-0.2-1.8-5.4-4.3-5.9-6.6c-0.5-1.6-11.8-9.5-13.3-12.2c-1.5-3.1-14.2-10.7-18.9-14.2
		c-1.8-1.3-4.8-0.7-6.4-2.8c-3.6-4.8-15.8-11.7-18.9-13.2c-1.3-0.5-4.8-3.5-6.9-4.6c-1.2-0.7-8.7-7.7-10.7-9.5
		c-3-2.5-9.9-1.2-9.9-2.3c0.3-3.6-2-3.3-2-5.8c-0.2-4.6-5.6-4.8-6.9-8.2c-0.3-0.7-7.4-5.8-10.4-8.6c-2.3-2-3-0.7-7.2-1.6
		c-2-0.3-3,1.8-4.4,2.8c-1.6,1-8.7,6.6-10.4,7.4c-1.8,0.8-6.7-0.2-7.7,0.5c-4.9,4.1-7.2,3.1-8.9,5.9c-1.2,2-3.5,1.2-5.6,3.9
		c-0.7,0.8-2.8,2.1-4.1,2.5c-1.6,0.5-2.3,3-5.6,3.5c-3.9,0.7-5.8,0.2-10.2,0c-4.6-0.2-5.8,0.3-7.2,0.7c-1.6,0.2-5.3,0.5-10.5,0.2
		c-4.4-0.2-9.5,2.3-9.5,2.3s-22.5,11.7-27.3,13.3l-2.1,1c-0.2,1.5-1.6,4.8-3.1,5.6c-1.3,0.8-3,0.3-3.8,1.5c-0.7,1.3,1,2.1,1.5,2.8
		c0.3,0.7,1.2,3-0.2,3.9c-1.6,1.2-2.3,3-3.1,3.9c-0.8,1.2-4.1,2.8-3.3,4.4c0.7,1.5,1.3,2.6,1.5,4.1c0.5,3-1,4.4-1.2,5.6
		c-0.2,1.3,1.3,1.2,0.2,3c-1.5,2.1-2.8,2.8-2,4.3c0.7,1.5-2.5,0.8-3.1,1c-0.8,0.3-1.5,1.2-1.8,2.6c-0.2,1.3,0.3,3.6-2.3,3.6
		c-2.6,0-6.4,0-7.2,0.8c-1,0.8,0.7,2.3-0.5,3c-1.3,1-2,0-3,0c-1.2,0-2.5,1.3-2.5,1.3s-0.8,1.3-1.2,2.1c-0.5,0.8-2,1.3-2.1,2.3
		c-0.2,0.8,0.8,1.3-0.2,2.6c-0.5,1-1.6,1.5-2.8,2.1c-1.2,0.7-1.6-0.5-2.3,1.2c-0.5,1.3-0.2,1.8-0.8,2.6c-1,1.2-3,1.5-4.1,2.1
		c-4.6,1.6-9.9,2.5-10.9,2.5c-1,0-7.1-0.2-7.1-2.1c-0.3-3.6-3.3-3.9-3.6-5.1c-1-2.6-4.4-3.8-4.4-5.6c-0.2-2.5-9.1-1.6-9.4,0
		c-0.2,1.5,0,9.5,0,11.5c-0.2,3.1,0,6.9,0.7,23c0.3,10.7-0.2,12.8,1.2,23.7c0.8,6.4,2.1,9.5,3.1,11.2l2.5-0.7c-0.3,0,3.6-0.8,2-2.5
		c2.3-0.2,2.5-2.3-1.5-2.5c2.8-0.7,2.6-2.1,1-2.5c2.3-0.7,3.3-1.5,2.3-2.8c2,0.3,1.3-1.5,0.8-2.1c1.5,0.3,2.5-0.3,2.1-1.3
		c2.3,1.6,4.1-0.2,1.3-1.3c2-0.2,1.3-1-1.6-1.5c1.2,0.3,3.3-0.7,2.6-1.6c1.5,1.2,3.5-0.7,1-2.6c1.6-0.5,2.3-3.1,2.3-3.6
		c0.2,1.6-0.5,4.8,1.3,4.3c-1,1-0.8,2,2.5,2c-3,0.5-3.8,2.6,0,3c-1.5,1.2,2.3,0.8,3.9,1.5c-2.5,0.3-2.8,1-1.8,1.5
		c-2.5,0.8,0.3,1.8,4.1,2.3c-3.6,0.2-4.4,2.5-2.8,3.5c0.8,0.7,2.1,0.3,3.3,0.2c1-0.5,1.5-0.8,2.6-1.3c1-0.3,1.6-1.3-1.5-2.3
		c1.5,0.3,3.9,0.2,3.1-0.5c3.6-0.5,3.5-2.3-1.6-3.9c1.5,0.5,7.1-0.3,4.3-1.8c1.3-0.3,0.2-2.6-1.6-2.5c1.2-0.5,1.5-2.5-0.7-3.1
		c2.1,0,4.3-0.3,2.3-1.5c1.3,0.2,2.3-0.5,1.8-1.3c2.8,0.5,2.1-1.2,0.8-1.8c0.7-0.3,2.8-1,0.5-2.5c1.8,0.2,3.8-0.2,3.5-1
		c2.1-0.2,3.6-2.5-0.2-2.1c0.5-0.5,1-1.5-0.3-2.1c2.8,0,3.9-3.6,3-4.6c1.5,0.2,1.2-4.1,1-5.4c1,2.5,1.5,3.9,2.6,3.9
		c-1.5,1,0.2,2.6,1.8,3.1c-1.5,0.7,1.2,2.5,2.5,2.1c-2.3,1.2-2.5,3.8,3,5.4c-2.3-0.3-1,2,0,2.6c-0.8-0.7-3.8-0.7-3,0.7
		c-1.2,0.3-1.8,2.5,1.6,1.5c-0.3,0.8,1.5,1.6,3.9,2c-1.5,1.5-0.8,2.1,1.2,2.5c-0.8,0.5-1.8,1.2-0.3,2.1c-1.3,1-3,3.1,3,3.3
		c-2.6,1-0.3,1.6,1.2,2.5c-4.9-0.2-3.5,3.8,0.2,3.9c-2,0.7-0.8,2.5,1.5,3.3c-1.3,1.2,3.3,1.6,2-0.7c2.8-0.3,4.1-2.1,2.1-2.6
		c3.6-1,1.3-5.3,0.2-5.1c1.6-0.3,3.8-1.6,2.1-2.8c2.5,0.5,5.3-1.8-1.2-2.3c5.1-0.7,3.8-2.8,1.5-3.6c0.7-0.2,6.7,0.5,4.3-2
		c1.6-0.5-0.2-1.5-2.1-1.5c1.5-0.3,3.6-2,1.6-3c0.8,0.2,1.8-0.2,1-2c0.8,0.7,4.6,0.8,3.6-1.2c1.3-0.5,0.2-1.5-0.7-2.3
		c2.1-0.8,0.8-3.8,0-4.4c11.2-0.5,1-4.3,0.2-4.6c2.5,0,5.1-0.7,3.8-2c5.6,1.2,2.5-3.5,0.8-4.3c0.7,0,2.8-1.3,1.5-2.6
		c2.6,1.3,4.4,0.8,1.8-2c1.2-0.3,0.5-1.8-0.5-2c2.5,0.3,2.5-5.1,2.5-5.1s1.6,4.9,4.1,5.3c-2.3,0.8-1.8,4.6-0.2,4.8
		c-0.5,1.6,2.3,1.5,3.8,1.8c-4.3,0-3.5,2.5,0.2,3.1c-1.8,1,0,2.3,2.5,1.8c-2.3,0.8-2.1,2.5,0.7,4.1c-1.2,0.7-2.1,2-1,3.3
		c-1.8,0,0,2.5,3.5,3.1c-4.4,0.2-5.4,1.5,0,3.5c-0.8,0.2-0.5,1.5,1.5,2.1c-3,1.3-2.8,3.8,2.5,3.9c-2,0.7-0.2,1.3,1.5,2.5
		c-9.4,0.7-4.3,4.6-0.7,3.9c-3.3,1.5,1.8,1.2,3.8,2.1c-3.3,0.3-7.1,0.8-5.6,1.8c-1.8,0.3-2,2.8,5.6,2.8c-1.3,0.7,1.2,3.1,2.3,3.8
		c-8.7,1.2-4.6,2.5-0.2,3.5c-1.3,0.3-2.5,2.6,2.3,2.3c-2.8,0.7-5.4,2-3.1,3.5c2.3,1.3,2,1.6,29.1,4.1c21.4,2,25,2.5,30,3.1
		c5.8,0.8,1.5-2.8-0.3-4.3c8.7,1.5,4.3-2.8,3.1-3.8c1.2,0,3.8-0.7,1.8-2c4.6,0.7,3.1-2.5,2.3-3.5c6.1-1.5,3-3.1,0.8-4.3
		c1.2-0.3,2.1-0.8,1.3-2c3.9,1.5,2.8-0.5,1.3-1.5c1.6,0.2,3.9-2.5,1.5-3.6c2.6-0.7,1.8-1.6,1.2-2c6.6-0.3-1-3.5,1-2.6
		c2.8-0.8,4.9-4.1,2.5-4.9c2.3-0.3,3.9-2.3,1.6-3.5c1.5-0.7,1.5-2.6,0.8-3.8c4.3,0.7,3-3,1.8-3.3c3.1,0.5,3.5-6.7,3.5-6.7
		s0.3,4.8,3.3,5.1c-1.8,1,1.6,3.1,3.1,3.6c-2.8,0-3.1,1.8-1.8,2.5c-2.5,0.2,0.2,3.1,2.1,3.8c-4.1,0.7-0.7,2.3,0.3,3.1
		c-2,0.3-1.8,1.8,0.3,2.3c-2.1,1-0.3,3.3,0.7,3.6c1.2,0.3,2.3,0,3.5-0.8c1.6-1.8-0.5-3.1-1.5-3.6c3.9-0.7,3.8-3.8,2.3-4.4
		c3.1-0.2,2.3-3.6,1.2-4.4c2.3,0.2,2.5-3,2.6-4.8c0.7,2.5,0.5,4.4,2.1,5.1c-2,2.6,0.3,4.6,1.8,4.4c-1.2,0.7,0.2,2.6,1.6,3.1
		c-3.9,1,0.8,3.9,1.8,3.9c-2.1,2.1,1.5,3.8,1.5,3.8s-2,2.1-1.5,4.3c0.5,2.1,3.8,1.6,4.8,0.8c2-1.6-0.3-3.9-1.2-4.4
		c3.5-0.2,2.6-3.9,1-4.4c3.3,0,7.6-1.2,2.8-2.3c-0.7,0,3.8-1.8,0.8-2.5c4.1,0.2,1.3-3.8,1.3-3.8s4.4-0.5,2.1-2.3
		c2.5,0.5,2.8-1.8,2.8-1.8s-0.5,3,3.1,3.9c-2.3,1.2,0.7,1.3,1.2,1.6c-3.8,1.2-0.8,2.6,1,3.1c-2.1,0.5-1.8,2.1-0.2,3
		c-1.8,0.5,0.2,1.8,1.8,2.1c-2.6,2.1-1.5,4.3,0.7,4.6c-2.5,3.8,1.5,3.3,2.5,2.5c1-0.5,1.5-1.5,1.2-2.1c-0.3-0.7-1-0.7-1.8-1
		c3.6-1,1.8-3.1,0.7-3.8c4.8-0.5,3.5-3.5,2.5-4.1c1.3-0.2,2.6-0.7,1.8-1.6c1.2-0.2,0.7-1.3,1.2-3c0.2,2.1,0.7,3.8,1.6,4.1
		c-0.8,0.8,0.3,1.5,0.8,1.8c-3.1-0.7-0.7,2,0.3,2.1c-1.3,1.3-0.2,1.8,0.8,1.8c-1,1-0.3,1.3,0.8,1.6c-1.3,1,0.3,3.1,2.6,2.3
		c3.5-1.2,0-3.3,0-3.3c2,0,3.5-0.8,2.5-1.6c3.6,1,5.8-2.1,2.8-3.6c1.2-0.3,2.5-3-0.5-3.8c3.5,0.7,5.8-0.3,3.8-3c2,0.2,1.8-1.6,2-2.8
		c0.5,2.3,1.3,2.5,2.1,2.5c-1.3,1.5-0.2,2.1,0.7,2.6c-0.3,0.8,0.5,2,2,1.8c-0.8,0.7,0.2,1.5,1.2,1.6c-4.1,0.3-3,2.5-1.2,2.5
		c-0.3,1.3,0,1.8,2.3,1.5c-1.5,1.8,1.2,2.1,2.1,2.1c-3.5,0-3,3.9-0.7,3.1c-0.2,2.1,3.3,0.7,4.4,1.2c-2.5,2.3-1.8,4.1,3.3,3.1
		c-2.5,3.5,2,2.5,2.3,1.3c3.1,2.1,4.1-1,2.1-2c1.5-0.2,1-1.3-1.2-2c2.8,0,2.1-0.8,1.6-1.6c2.1,0.7,3-0.5,2.1-1.8
		c2.3,0.3,2.3-2.3,2.3-2.3s0.3,1.6,2,1.3c-0.8,1.8,0.7,2.3,2.8,1.8c-0.8,1.8,0.2,2.5,1.6,2.6c-0.2,0.7,0,1.8,1,2.3L611.4,247.5z"/>
	<path id="path6662" fill="#FFFFFF" d="M447,122.5l-0.5-0.2l-0.3,0.2h-0.3h-0.3h-0.3h-0.3l-0.7,0.2l-0.7,0.2l-0.7,0.2l-0.7,0.2
		l-0.7,0.2l-0.8,0.3l-0.7,0.3l-0.3,0.2l-0.3,0.2l-0.3,0.2l-0.5,0.2l-0.3,0.2l-0.5,0.2l-0.3,0.2l-0.5,0.3l-0.3,0.2l-0.5,0.2l-0.5,0.3
		l-0.3,0.2c-2.3,1.2-16.9,11.7-23.9,14.5c-5.1,2.1-6.9,7.6-6.9,8.7c0.2,2,5.6,0.3,10.5-0.8c6.1-1.8,6.4-2.6,6.7-4.1
		c0.2-1,3.8-3,6.9-6.3c2.5-2.6-0.5-3.3,1.8-4.6c2.5-1.6,7.4-6.9,9.5-7.6C442.3,125.3,447.9,122.5,447,122.5z M583.3,157.5v0.2h0.2
		v0.2h0.2v0.2l0.2,0.2l0.2,0.2v0.2l0.2,0.2l0.2,0.2l0.2,0.2l0.2,0.2l0.2,0.2l0.2,0.2l0.3,0.3l0.3,0.3l0.3,0.3l0.2,0.2l0.2,0.2
		l0.2,0.2l0.2,0.2l0.2,0.2v0.2l0.2,0.2l0.2,0.2l0.2,0.2h0.2v0.2l0.2,0.2c1.2,0.8,2.3,2.1,3.1,0.8c0.7-1.3-2-1.8-3.9-3.8
		c-2-2-1-2.8-3.1-3.6C581.5,154.7,582.8,156.9,583.3,157.5z M544.6,135.5h0.2v0.2l0,0l0,0l0.2,0.3l0.2,0.2v0.2l0.2,0.2l0.2,0.3
		l0.3,0.2l0.2,0.3l0.2,0.2l0.2,0.3l0.3,0.3l0.2,0.3l0.2,0.3l0.5,0.5l0.5,0.7l0.5,0.7l0.3,0.2l0.2,0.3l0.3,0.3l0.2,0.2l0.3,0.3
		l0.2,0.3l0.2,0.2l0.2,0.2l0.2,0.3l0.3,0.2v0.2h0.2c1.5,1.5,3.5,3.3,4.4,4.8c0.8,1.5,2,0.7,2.1-0.2c0.2-1-3.5-4.3-2.1-4.3
		c1.2,0,2.3,3,3.9,4.4c1.5,1.5,3,3.6,3.6,4.9c0.8,1.5,2.3,3,4.4,4.9c2.1,2,2.3,3.6,2.3,3.6s0.2-1.8,0-3.9c-0.2-2.1-3.6-3.8-5.9-5.8
		c-1.6-1.5-0.8-3.3-2.3-5.1c-1.5-1.6-6.3-9.9-7.6-10.9c-1.3-1-2,1.2-3,2.3c-0.8,1.2-3-3.9-4.1-5.6c-1-1.5-2.8-5.8-4.3-4.6
		C541.7,128.6,544.1,134.2,544.6,135.5z M510.4,125.4v0.2v0.2h0.2v0.2l0,0v0.2v0.2l0,0v0.2h0.2l0,0v0.2l0,0v0.2l0.2,0.2l0,0v0.2
		l0.2,0.2v0.2l0,0v0.2l0,0l0,0v0.2l0,0v0.2l0,0c0,1-1.2,0.5-1.2,1.3c0,1-0.3,3,1.6,3.3c2,0.3,2.1,0.5,3.5,0.2
		c1.5-0.3,4.3,0.7,4.9-0.3c0.8-1-0.7-2.3-1.6-2.8c-1.2-0.7-1.3-2.5-2-3.9c-0.7-1.3-2.8-2-4.9-2C510.1,123.6,510.2,124.3,510.4,125.4
		z M539.7,143.4l0.2,0.5l0.3,0.3l0.2,0.5l0.3,0.3l0.3,0.3l0.2,0.3l0.3,0.3l0.3,0.3l0.3,0.3l0.3,0.2l0.3,0.3l0.3,0.3l0.3,0.2l0.3,0.3
		l0.5,0.2l0.3,0.3l0.5,0.2l0.3,0.2l0.5,0.3l0.5,0.2l0.5,0.3l0.5,0.2l0.5,0.2l0.5,0.3l0.5,0.2l0.5,0.3l0.7,0.2l0.5,0.3l0.7,0.2
		l0.7,0.3l0.7,0.3l0.7,0.3c1.8,0.8-10.9-9.4-14.2-13.2c-3-3.1-6.4-8.4-9.1-8.6C527,130.4,538.4,140.7,539.7,143.4z M470.1,127.7
		l-0.3,0.2l-0.2,0.2h-0.3l-0.3,0.2l-0.3,0.2l-0.3,0.2l-0.3,0.3l-0.3,0.2l-0.5,0.3l-0.3,0.2l-0.3,0.3l-0.5,0.3l-0.3,0.2l-0.5,0.3
		l-0.8,0.7l-0.8,0.7l-0.8,0.7l-0.8,0.8l-0.3,0.3l-0.3,0.3l-0.5,0.3l-0.3,0.3l-0.3,0.3l-0.2,0.3l-0.3,0.3l-0.3,0.3l-0.2,0.3l-0.2,0.2
		c-1.3,1.8-0.7,3.6-0.2,3.9c0.5,0.3,1,0.5,1.6-0.2c0.5-0.5,1.3-2.8,2.6-3.6c1.5-0.8,3.5-4.1,4.6-5.1
		C468.8,130.7,472.7,127.1,470.1,127.7z M449.7,137.3h-0.2l0,0h-0.2h-0.2l0,0H449v0.2h-0.2l0,0l0,0h-0.2l0,0l-0.2,0.2l0,0h-0.2l0,0
		l-0.2,0.2l0,0H448h-0.2v0.2h-0.2l0,0l-0.2,0.2l0,0l-0.2,0.2h-0.2H447v0.2h-0.2l-0.2,0.2h-0.2c-1.3,1.2-2.1,1.5-1.5,2.1
		c0.5,0.7,1.2,1.2,2,0.3c0.8-0.8,2.1-2.6,2.8-3C450.7,137.8,450.5,137.3,449.7,137.3z M466,123h-0.2l-0.3,0.2h-0.2l-0.3,0.2
		l-0.3,0.2l-0.3,0.2l-0.3,0.2l-0.3,0.2l-0.5,0.2l-0.3,0.2l-0.3,0.3l-0.5,0.2l-0.3,0.2l-0.5,0.3l-0.8,0.5l-1,0.5l-0.8,0.3l-0.3,0.3
		l-0.5,0.2l-0.3,0.3l-0.5,0.2l-0.3,0.2l-0.3,0.2l-0.3,0.3l-0.3,0.2l-0.3,0.2h-0.3l-0.3,0.2l-0.2,0.2c-2.5,1.2-4.3,2.6-4.1,3.1
		c0,0.7,0.7,0.8,2.8,1c2.1,0.2,2.1,0,4.1-1.5c1.8-1.5,4.8-4.1,6.1-5.3C464.8,124.8,466.6,122.8,466,123z M639.4,192.7h-0.2h-0.2
		h-0.2l-0.3-0.2h-0.2h-0.2l-0.3-0.2h-0.2h-0.3l-0.2-0.2h-0.2h-0.2h-0.2l-0.2-0.2h-0.2h-0.2h-0.2l-0.2-0.2h-0.2h-0.2h-0.2l-0.2-0.2
		c-3.9-1.2-5.6-3-15.5-3.9c-2-0.2-7.9-7.1-16.8-10.5c-2.5-0.8-17.9-10.2-19.9-10.5c-6.7-0.8-8.6-3.1-7.7-1c0.5,1.2,3,2.6,3.1,6.7
		c0.2,1.3,1.8,5.9,1.8,5.9c-0.2,1.6-21.7-5.4-26.8-13.3c-7.1-10.7-8.4-13.3-12.2-15.8c-3.9-2.3-7.2-4.8-8.6-7.9
		c-0.5-0.7-0.2-2.1-1.3-2.3c-2.3-0.2-4.1,0.3-5.4-2.3c-0.8-1.6-2.3,0.8-3.5,1.8c-1,0.7-3,0.3-2.5,1.6c0.3,1.2-1.5,1.8-0.7,2.5
		c3.6,3.5,1.8,6.6,3.5,7.2c0.7,0.2,1.5,2.5,1.3,3.9c-0.3,3.3,1.8,3.9,2,5.6c0,1.3,1,4.4,0,4.3c-1.5-0.3-3.9-2-5.9-3.8
		c-1.8-1.6-3.3-1.6-3.6-3.1c-0.2-0.7-1.8-1.6-3.9-5.4c-0.3-1,3.1,5.1,4.3,9.2c0.8,3,2.3,6.3,3.9,8.4c1.5,2-0.2,5.4-0.2,5.4
		c-0.5,0-4.8-2.3-5.4-3.8c-1.8-3.3-7.1-3.8-11.4-11.5c-1.5-3,0.2-8.9,0.2-10.5c0-2.5-2.8-3.8-5.1-7.7c-2.3-3.3,0.5-11.7,0-14.3
		c-0.5-2.3,0.7-5.9-0.5-5.9c-1.8,0.2-7.2,5.4-13.8,8.9c-1.2,0.5-3.6,2.6-4.4,2.8c-5.4,1.6-7.6,3.9-10,9.2c-3,6.3-5.1,9.4-6.3,11.7
		c-1.3,2.3,0.5,2.8-1.3,4.4c-1.3,1-11.8,11.4-13.3,12.8c-5.4,5.4-5.9,3.5-5.8,2.8c0.7-2.8,7.1-10,10.9-16.3c2.5-3.8-2.5,0.2-4.3-0.8
		c-3.1-1.8,0.2-5.6,0.8-6.1c1.3-1.5,0.3-2.6,1.2-3.6c2.3-2.5,0.8-2.8,1.6-3.5c1.5-1.2,0.8-1.2,0-0.8c-2,1-7.6,4.3-8.7,5.4
		c-1.6,1.6-15.1,9.9-12.2,5.8c0.7-0.8,1.8-2.1,3.1-3.1c1.5-1.5,2.5-3.8,2.6-5.1c0-1-0.2-2.1,0.5-2.8c6.9-5.9-1-1.3-1.8-0.5
		c-2.3,2.5-9.4,6.6-12.3,8.4c-2,1-7.6,3.6-8.1,5.1c-0.7,1.5-1.3,2.8-2.5,2.3c-2.6-1.2-3.9-0.5-6.1,1.3c-2.1,1.6-3.3-0.3-4.3-0.2
		c-3.3,0.7-5.1-0.7-6.4-0.3c-2.3,0.7-11.8,7.4-14.6,6.6l-1.3,0.2l-0.5-0.7l-0.2-0.5c0.2-0.2,1.6-3,1.3-5.6c-0.2-1.5-0.7-2.6-1.5-4.1
		c-0.7-1.6,2.6-3.3,3.5-4.4c0.8-1,1.5-2.8,3-4.1c1.3-0.8,0.7-2.8,0.2-3.5c-0.3-0.8-2-2-1.3-3.1c0.7-1.3,2.5-0.7,3.9-1.5
		c1.5-1,2.8-4.3,2.8-5.9l2.1-0.8c4.6-1.5,27.3-13.3,27.3-13.3s5.1-2.5,9.4-2.3c5.3,0.5,9.1,0,10.7-0.2c1.5-0.3,2.6-0.8,7.1-0.7
		c4.6,0.2,6.4,0.8,10.2,0.2c3.5-0.7,3.9-3.1,5.6-3.6c1.5-0.3,3.5-1.6,4.3-2.5c2.1-2.8,4.4-2,5.6-3.8c1.6-3,3.9-2,8.9-5.9
		c1-0.8,5.9,0.3,7.6-0.7c1.8-0.8,8.9-6.4,10.4-7.2c1.6-1.2,2.6-3.3,4.6-3c4.3,1,4.9-0.3,7.1,1.6c3.1,3,10.2,7.7,10.5,8.6
		c1.3,3.5,6.6,3.6,6.7,8.2c0.2,2.5,2.5,2.1,2.1,5.9c-0.2,1,6.9-0.3,9.9,2.1c2,1.8,9.5,9.1,10.7,9.5c2,1.2,5.4,4.1,6.9,4.8
		c3.1,1.3,15.3,8.2,18.9,13c1.6,2.1,4.6,1.5,6.4,2.8c4.8,3.5,17.3,11.2,18.9,14.2c1.5,2.6,12.8,10.5,13.3,12.3
		c0.3,2.1,5.6,4.6,5.9,6.4c0.2,1.8,7.2,6.6,9.9,8.6c3,2.1,3.6,2.6,6.1,5.3L639.4,192.7z"/>
	<path id="path6666" fill="#2D4B1E" d="M587.6,281.4v0.2l-0.2,0.2v0.2l-0.2,0.2v0.2v0.2h-0.2v0.2l-0.2,0.2v0.2l-0.2,0.2v0.2v0.3
		l-0.2,0.2v0.2v0.2c-0.8,2.6-3.3,17.3-3.5,20.6c-0.3,3.5-1.2,4.9-3,6.7c-1.8,2-7.1,6.1-7.4,8.6c-0.2,2.3,0.7,10.5-1,12
		c-2,2-9.4,11.2-12.3,14.2c-2.8,3-7.6,8.2-7.6,8.2l-2.6,3.8c1.3,1.6,3.1,7.1-0.7,10.9c-3.3,3.3-9.9,12.2-18.9,18.6
		c-4.8,3.5-10.2,6.9-11.4,8.4c-1.6,2.1-0.7,6.4-2,7.2c-2.5,1.3-6.6,6.3-8.4,6.9c-2.3,1.2-2.1,2.5-2.8,4.4c-0.7,2-2,2.5-2.5,4.6
		c-1,3.3-6.1,10.9-9.4,16.1c-2.1,3.3-5.4,3.9-9.1,6.6c-6.6,4.4-5.4,2.3-16.5,12.7c-3.8,2.8-8.7,8.4-10.4,9.5
		c-1.5,1.5-6.1,8.1-9.1,11c-3.1,3-6.1,4.8-20.1,7.4c-3.1,0.8-6.3-1.3-11.8-1.3c-2.8,0-10.4-4.3-13-5.9c-2.1-1.3-5.8-3-7.2-4.1
		c-6.3-4.1-9.4-5.3-11.4-6.1c-2.1-1-4.6-2.1-6.4-3.5c-2.5-1.6-6.1-5.6-7.6-6.9c-6.1-5.6-17.1-12.5-18.6-14.3c-1.3-2-4.1-5.9-6.3-8.4
		c-2-2.5-3-1.6-4.1-3.6c-0.7-0.8-0.3-8.6-0.8-10c-0.3-1.6-0.7-3.5-6.1-6.6c-5.4-3.1-7.9-3.5-9.7-6.1c-2-3.1-9.5-11.2-9.9-12.8
		c-0.5-1.8-1.2-6.7-1.5-8.4c-0.3-1.6-1-4.4-4.8-6.9c-1.3-1-1.3-2.3-2-3.1c-0.5-0.8-2.3-1.3-3.1-1.6c-1-0.2-1-2-1.5-4.4
		c-1.3-7.7-3.8-10.4-6.7-13.8c-3-3.3-6.3-6.3-7.2-6.7c-2.3-1-5.1-3.6-6.3-4.9c-1-1.2-2.1-2.5-2.1-4.3s-2-8.7-3.5-11.4
		c-2.1-3.8-3.9-8.9-8.2-14.8c-5.3-6.9-8.2-8.4-9.9-10c-1.2-1.2-1.3-4.1-1-5.8c0.3-2.3-1.3-3.9-3.6-6.7c-2.5-2.5-9.1-9.1-10-10.4
		c-0.8-1-2.6-1.8-4.3-2.1c-1.5-0.3-3.1-3.8-4.1-4.4c-1-0.7-1.2-2-1.2-3.9c0-0.2-0.2-0.7-0.7-1.5c-0.2-0.7-0.5-1.3-0.8-2.1l-0.3-0.5
		c0.5-0.2,1.2-0.5,1.6-0.7c1.2-0.5,1-1-0.5-1.2c1.2-0.3,2.5-1.3,1.3-1.8c1.3-0.7,2.5-2.1,1.3-2.5c0.8-0.7,1.3-3.5,1.3-3.5
		s0.3,1.6,1.5,2.8c-1.2,0,0.2,0.7,0.7,1.2c-0.7,0.3,0.3,0.7,1,1.3c-1,0.3-0.7,0.8,0.3,1.2c-0.7,0.5,0.5,0.7,1.5,0.3
		c-0.5,0.8-1,0.8-1,0.8s5.1-0.5,7.7-2.3c2.6-1.8,1.6-2.5-0.5-3.5c2-0.7,6.9-2.1,5.3-3.6c1.3-1-0.5-1.6-2.1-2
		c5.9-1.3,6.3-2.3,5.6-2.6c3.1-1.8-0.7-2.6-1.6-3.3c3.9,0.8,3.1-0.5,2.6-1.5c3.3,1.5,3.5-2,2.1-3c1.3-0.2,1.5-2-0.5-3.1
		c3.3,0.3,5.3-0.3,2.6-2.1c1.6-0.7,1.8-1.5,1.2-2.1c1.8-1.2,0.7-2.3-0.2-2.6c1.8-0.8,1.6-2.8,0.7-3.3c1.5-1.8,2.1-5.9,2.1-5.9
		s0,3.1,2.3,4.8c-0.8,0.8-0.3,2.5,1,2.5c-1.3,2-0.5,2.6,1.8,3c-0.8,1.2-1.6,2.1,1.5,2.3c-2.6,1.8-1.6,3,0.8,2.6
		c-2.6,1-1,2.6,1.8,2.1c-2,1.5-2,3.1,1,2.6c-2.8,1.5-3.1,3.5,1.3,3.3c-1.5,0-3,3.9,2.6,5.1c0.5-4.4,2.1-35.1,2.5-40.6
		c0.2-6.1-0.2-10.4-0.2-10.4s-0.5-0.2-3.1,0c-2.5,0.3-3.6,1.2-7.6-0.2c-3.9-1.3-4.6-0.5-7.4-0.3c-2.5,0.2-3.8-0.2-6.6,0.8
		c-3,1.2-6.1-0.3-7.4-1.5c-1.3-1,0-3.3,2.1-3.3c4.8,0.2,5.8-1.5,6.3-2.3c1.3-2.6-1.8-2.1-2.3-3.5c-0.8-2.6-2.3-3.1-3-3.8
		c-1.5-1.5-3.1-0.7-3.9-1c-0.8-0.5-2-0.7-1.5-3c0-0.7-0.5,0.2-2.3,0c-1.8-0.3-0.7-0.3-2.3-0.7c-1.5-0.2-0.5-1.6-2.5-2
		c-1.5-0.2-1.6,0.8-4.1,1c-0.8,0-4.3-0.3-5.6-0.8c-1.3-0.5-3,0.2-3.9-0.7c-1.2-0.8-0.7-2.3-1.2-4.1c0-1,1.6-2.5,2.3-3.9
		c0.8-1.3,2.3-1.8,6.1-1.3c1.6,0.3,4.8,0.5,7.2,0.3c3.8-0.5,2,1.2,4.8,1c2.8,0,6.3-1.6,6.4-3.3c0.3-1.5,0.3-3.1-0.7-3.5
		c-1-0.5-2.5-0.5-3.5-1.8c-1.2-1.3-0.8-2.6-0.8-3.9c0.2-1.2,1.8-2.6,3.5-3.6c3.3-2.1,1.5-3.3,2.5-3.6c1-0.5,2.5-1,4.4-1
		c3.5-0.2,4.9,1,7.6,1.2c3,0,5.9,0.8,8.1,0.8c5.9-0.3,0.3-3.1,3.5-2.6c1.6,0,3.9-0.5,5.6-1.2c2.8-1.3,2.8-3.9,4.3-5.3
		c0.8-0.7,0.7-3.6,0.5-4.8c0-1.3-1.3-3.5-3.3-3.8c-1.8-0.3-3.6,0-5.9-0.3c-2.1-0.3-2.6,0-3.8,0.3c-1.3,0.3-1.3,0.5-2.5,1.3
		c-1.3,1-2.1,1-3.1,2c-1.3,1.2-0.5,3-2,3.8c-3.1,1.6-2.8-0.2-4.3,0.2c-1.5,0.2-2.6,0-3.8-0.3c-1.5-0.3-3.8-0.8-3.9-2
		c-0.2-1.3-1-2-2-2.5c-0.8-0.5-1-1.3-2-1.3c-1.2,0-1.6,0-3.1,1.2c-1.3,1-0.8,2.5-1.3,3.3c-1.3,2-1,3.5-2.3,3.5c-1.5,0,0-1.5-2.5-0.8
		c-1.3,0.3-1.2,1.5-3,2c-1.3,0.5-1.8,0.8-3.8,1.6c-2.3,1-2.8-0.2-4.8-0.7c-1.6-0.5-2.5-1.6-4.8-1.6c-1.6,0.2-0.7-3,1.2-5.1
		c1.6-1.8,3.8-0.7,5.3-2.5c2.8-3.5,2.8-1.5,3.5-4.3c0.5-1.8,2.6-1,2.3-2.8c-0.3-2-1.8-1-2.1-3.3c-0.2-1.3,0.3-3.5,2.3-3.8
		c2-0.2,4.6,1,7.1-0.8c1.8-1,3.9-1.6,5.1-2.8c1-1.2,0.5-2.8,1.3-3.3c0.7-0.5,2.6,0.2,2.1-2.6c-0.5-2.1-3-0.7-4.6-2.1
		c-1.2-0.8-0.8-1.8-1.8-2c-2.8-0.3-1.3,1.6-5.3-0.7c-1.6-1-0.3-1.6-1.6-2.5c-1.5-0.8-2.6,0-5.3-1.3c-2.3-1.2-4.6,0.8-5.3-0.8
		c-0.3-1.2-2.6-2.1-3-2.6c-0.3-0.5-0.8-1.3-0.7-2.8c0.2-1.3-0.2-3.1,1.2-3.8c1.3-0.5,2.1-1.8,3-2.8c1.5-1.6,0.5-3.6,1.5-4.4
		c1.2-1,3.1-5.1-2.1-2.1c-1.6,0.8-3.8-0.2-4.3,0.7c-0.5,0.7-4.1,0.7-4.1-0.8c0-2,3.5-1.8,1.8-4.1c-1.6-2.1-3-0.8-3-3.1
		c-0.2-1.2,2.6-3,4.3-3.6c1.6-0.7,4.1-2.1,7.7-0.5c8.4,4.1,6.9,0.8,9.9,0.8c3.1,0.2,2.3,1.6,8.2,2c2.6,0.2,6.3,0.2,6.3-1.3
		c0-1.6-2.1-1.6-3.6-2c-1.3-0.3-3.3,1.3-4.4-0.8c-0.8-1,2-1.6,1.6-3.5c0-1.8-3,0.2-3.1-1.3c-0.5-2.1,1.5-4.1-0.5-5.4
		c-0.8-0.5-2.5-1-3.9-0.2c-1.3,0.7-2.5,1.8-4.8-0.3c-2.5-2,1.3-3,0.2-4.6c-1-1.6-4.3,0.8-3.5-1.6c0.5-1.2,2.3-3.8,4.4-3.5
		c9.9,1.3,13.2-2,15.1-1.8c2.8,0.5,2.8,1.6,6.1,1.5c2.5-0.2,3.6-2.6,8.1-2.8c7.2-0.2,7.4,1.2,9.9,2c9.1,2.6,5.6-2.1,7.6-2.1
		c2.6,0.2,3-1.5,3-2.5c0-0.8-1.5-1.3-3.6-1.8c-2-0.3-1.6-2-6.1-1.2c-5.6,1.3-8.9,0.3-10.7,1.8c-3,2.3-5.8,1.8-7.1-0.5
		c-1.2-2-4.6-3.1-5.6-2.8c-3.1,0.8-4.8,0.5-5.6-1c-1-1.5-2.6-3.3-4.6-3.8c-1.8-0.5-4.1,1.3-5.3-2.1c-1-2.5,2-2.8,3-4.1
		c1.2-1.3,0-2.6,1.2-3.5c1.8-1.3,4.9-3.1,4.6-4.3c-1.6-3.3-2.6,0.5-3.6-0.3c-3.1-2.3-3.9,0.2-5.4-0.5c-1.6-0.8,2-2.3,2.1-3.8
		c0.3-1.6-0.7-3.1,1.8-5.3c4.1-3.3,1.2-3.3,0.8-4.4c-0.2-1.2,0.8-2.1,0.3-3c-0.5-1.2-1.6-1.3-1.8-2.3c-0.2-1.2,1.2-3.6,2.3-4.3
		c1-0.7,0.2-1.8,4.9-3c4.9-1.2,2-3.3,2-4.1c0-1,0.5-2.3,1.3-2.6c0.8-0.3,1.6,0,3-0.2c1.5-0.2,2.1-0.7,3.8-0.5
		c1.6,0.3,1.5,1.2,2.8,1.5c1.3,0.2,2.3-0.2,3.3-0.2c2.1,0.2,3,1.5,4.8,0.8c1.8-0.8,2-2.1,1.8-3.6c0-1.3-2-0.3-1.8-1.6
		c0.2-1.3,1.3-0.8,1.2-3.5c0-1.2-0.2-2.1,1.6-2.6c2-0.5,2.1-1.3,3.5-1.3c1.2,0.2,3.1,1.3,4.9,1.5c1.2,0,4.1-0.3,4.4,1.2
		c0.5,1.8,1.2,3,1.5,4.1c0.2,0.8,0.2,1.8,1.3,2.3c0.7,0.2,1.3,0.8,1.3,2.1c0,2,0.5,7.1,0.5,7.1s0.7,1.6,1.5,1.3c1-0.3,2-0.8,2.3-6.7
		c0.2-1.3,1-13.8,0.2-15c-1.3-2.3-0.5-3-1.5-4.1c-1-1.2-2.1,0-2.1-1.2c0-1.3,0.2-3.5-1.5-3.8c-2.3-0.5-2.3,2-2.5,3
		c0,1-1.6,1.3-3.6,1.3c-1.3,0-3-0.5-4.1-1.2c-1.2-0.5-1.5-0.5-3-1.6c-0.8-0.5-1.2-1-0.8-4.1c0.3-2.5,2.3-4.3,1.2-5.4
		c-1.2-1-1.5-1.3-4.6-1.3c-3,0-5.1-0.2-4.9-1.8c0.2-2.3,2.8-2.3,7.4-2c2,0.2,3.6-1.5,3.1-3.6c-0.2-0.8,0.7-1.5,0.7-3.3
		c-0.2-2-2.1-3.3-3.8-2.3c-2.1,1.2-3.5,0.3-4.9,1.2c-3,2-4.6,1.3-6.1,0.5c-1-0.7-2-2-1.3-3.5c0.7-1.5,1.3-1.6,1.5-3.5
		c0-1.6-2-1.8-0.5-3.5c1.6-1.8,0-4.4,1.6-5.4c3.3-2.3,0.3-4.3,3-5.6c1.5-0.8,1.8-3,1.8-4.6c0-1.5-1.8-1.8-0.5-3.3
		c1.3-1.3,0.7-3.8,3.5-4.3c2.6-0.3,4.3-1.5,6.4-2.5c1.5-0.5,3.8-2.3,6.4-3.6c1.5-0.8,1.8-0.8,6.3-1.3c1.3-0.2,3.9-2.1,5.1-3.5
		c1.2-1.3,2.5-1.6,5.1-1.8c1.5-0.3,2.3,0.8,4.9,2c2.6,1.2,2.3,3,4.6,3.5c1.5,0.3,4.3-0.3,2.8,2.3c-1.2,2,0.7,3.5-2,3.8
		c-1.5,0.3-2.6,1.2-2.6,2c0.2,1.8,2,2.5,3.9,3.3c2.1,0.8,2.1,2.3,3.3,3.6c0.8,0.8,1,3.5,1.3,5.1c0.3,1.5,0.3,3,0.3,4.3
		c0.2,1.3,1.2,2.5,1,4.6c-0.2,1.8-1.2,3-1.8,4.3c-0.8,1.3-1.5,3-2,3.9c-0.3,1.3-0.2,3.1-0.3,4.3c-0.3,1.3-1,3.5,0,4.1
		c0.8,0.3,1.8,0,3.1,0.3c0.8,0.2,1.8,1.5,2.1,2.1c0.3,0.8-0.2,3.1,2.5,3.6c1,0.2,1.8,1.2,1.8,2c-0.3,2.1-1,3.9,0.8,6.1
		c1.2,1.5,2.6,1.2,5.1,1.2c2.5-0.2,2.1-3.1,2.6-4.9c0.7-1.8,2.5-4.8,4.6-6.1c1.2-0.7-1.2-3.6,4.8-4.1c5.9-0.5,7.9-0.3,8.9,1.3
		c2.1,4.6-0.2,4.8-1.5,6.9c-0.7,1.3-2,1.6-2,3.8c0.2,3.3,3.9,2.6,3.9,4.1c0,0.8-1.3,1-1.5,2.3c0,1.3,2,1.5,2,3.1
		c0,0.8-3.1,2.8-1.2,4.1c1,0.8,2,1.5,2.3,5.3c0.3,1.6-2.3,1.5-2.1,3.3c0.2,2.3-0.2,2.8-1.6,3.6c-2.1,1.2-3.3,3-2.1,4.1
		c1.2,0.8,2.8,0.3,3.6,1.5c0.8,1-0.7,4.8,0.7,5.9c0.8,0.8,3.9-0.5,2.8,1.8c-1.6,3.5,2.5,3.9-1.6,5.9c-2.5,1.2-3.6,1.3-4.9,2
		c-2,0.8-4.4,1.8-4.8,3.1c-0.3,1.5,0.3,3.6-1.6,3.9c-1.8,0.2-1.8,2.6-1.3,3.5c0.5,1,2,2,2,3.1c0,1.3-0.5,3.1-0.2,5.1
		c0.2,1.5,1.2,2.6,2.3,3.3c1.2,0.5-0.8,2-0.2,2.8c0.7,0.8,2.5,1.6,5.6,1.6c2.6,0,6.1-0.5,8.1-0.5c2.1,0,1.3,1.3,2.3,2.1
		c2,1.5,4.8,0,5.9,1.2c2,1.8,3.3,1,3.8,2.8c0.3,1,1.3,1.3,1.8,2.5c0.3,1.2-1,2.5,0.2,3.8c1,1,0.3,2.3-0.2,3.3
		c-0.7,1-1.8,2.3-2.1,3.9c-0.3,1.5,0,2.6-1.5,3.9c-1,1-1.6,2.3-3.5,1.8c-1.8-0.3-3.6-0.8-6.1-1.2c-3-0.7-3,1.2-3.8,2.1
		c-1,1.2-4.8,1.3-4.9,3.5c-0.2,1.5,0.5,1.5,4.3,1c1.3-0.3,1.3,2.5,0.5,3.5c-0.7,1.5-1.8,3.8-4.8,5.1c-1.8,0.7-4.3-2.6-5.1-2.5
		c-1.8,0.3-3.3-1.3-4.6,0c-1.3,1.2-2.3,1.2-3.5,1.8c-1,0.8,0.8,3.6-0.5,3.6s-3-0.2-3.5,1.2c-0.7,1.8,0.7,2.8,2,3.3c1.2,0.5,3,1,3,2
		c0,1-2.8,3.1-0.3,4.1c3.1,1,1.5,2,3.9,2.8c2.6,0.8,7.9,1.6,14.8,4.1c4.8,1.6,8.1,3,8.9,4.6c0.7,1.3-0.3,1.5-0.2,2.5
		c0.3,1,1.8,2.3,4.8,3.5c1.3,0.7,2.8,1.6,3.1,3.1c0.3,1.3-2.5,1.2-1.8,5.1c0.2,2.1-2,2.1-1.6,4.6c0.2,2.5-0.3,2.1-1.6,4.4
		c-1.5,2.6-3.6,3-2.8,4.8c0.5,0.8,2.3,0.8,4.3,0.8c1.2,0,2.1,0.7,6.1,0.8c5.6,0.2,6.3-1.6,10.7-1.8c1.5,0,4.1,0.7,4.8,1.6
		c0.7,0.8,0.3,1.8,0.2,3.1c0,1.6-1.5,4.9-3,5.8c-1.3,0.8-3,0.2-3.8,1.5c-0.7,1.3,1,2.1,1.5,2.8c0.3,0.7,1.2,3-0.2,3.9
		c-1.6,1.2-2.3,3-3.1,3.9c-0.8,1.2-4.1,2.8-3.3,4.4c0.7,1.5,1.3,2.6,1.5,4.1c0.5,3-1,4.4-1.2,5.6c-0.2,1.3,1.3,1.2,0.2,2.8
		c-1.5,2.3-2.8,2.8-2,4.3c0.7,1.6-2.5,1-3.1,1.2c-0.8,0.2-1.5,1.2-1.8,2.6c-0.3,1.3,0.3,3.5-2.3,3.5c-2.6,0-6.4,0.2-7.4,1
		c-0.8,0.8,0.8,2.3-0.3,3c-1.3,0.8-2,0-3,0c-1.2,0-2.5,1.3-2.5,1.3s-1,1.3-1.3,2.1c-0.3,0.8-1.8,1.3-2,2.1c-0.2,1,0.8,1.5-0.2,2.8
		c-0.5,1-1.6,1.5-2.8,2.1c-1.2,0.7-1.6-0.5-2.5,1.2c-0.3,1.3,0,1.8-0.7,2.6c-1,1.2-3,1.5-4.1,2c-4.6,1.8-9.9,2.6-10.9,2.6
		c-1,0-7.1-0.2-7.1-2.3c-0.3-3.5-3.3-3.8-3.6-4.9c-1.2-2.6-4.4-3.8-4.4-5.6c-0.2-2.5-9.1-1.6-9.4,0c-0.2,1.3,0,9.5,0,11.4
		c-0.2,3.3,0,7.1,0.7,23c0.3,10.9-0.2,13,1.2,23.9c0.8,6.4,2.1,9.5,3.1,11.2l2.5-0.8c-0.3,0.2,3.6-0.7,1.8-2.3
		c2.5-0.2,2.6-2.3-1.3-2.5c2.8-0.7,2.6-2.3,1-2.5c2.3-0.7,3.3-1.5,2.3-2.8c2,0.3,1.3-1.5,0.8-2.3c1.5,0.5,2.5-0.2,2-1.2
		c2.5,1.5,4.3-0.2,1.5-1.3c2-0.2,1.3-1.2-1.6-1.5c1.2,0.2,3.3-0.7,2.6-1.6c1.5,1.2,3.5-0.7,1-2.8c1.5-0.5,2.3-3,2.3-3.5
		c0.2,1.6-0.5,4.6,1.3,4.1c-1,1.2-0.8,2.1,2.5,2.1c-3,0.3-3.8,2.6-0.2,3c-1.3,1.2,2.5,0.8,4.1,1.5c-2.5,0.2-2.8,1-1.8,1.3
		c-2.5,1,0.3,1.8,4.1,2.5c-3.6,0.2-4.4,2.5-2.8,3.5c0.8,0.5,2.1,0.3,3.3,0c1-0.3,1.5-0.8,2.6-1.2c1-0.3,1.6-1.3-1.5-2.3
		c1.5,0.3,3.9,0.2,3.1-0.5c3.6-0.5,3.5-2.5-1.6-3.9c1.3,0.5,7.1-0.5,4.3-1.8c1.3-0.3,0.2-2.6-1.6-2.5c1.2-0.5,1.5-2.5-0.7-3.1
		c2.1,0,4.1-0.3,2.3-1.5c1.3,0,2.3-0.5,1.6-1.3c3,0.5,2.3-1.3,1-1.8c0.7-0.5,2.8-1,0.5-2.6c1.8,0.2,3.8,0,3.5-0.8
		c2.1-0.2,3.6-2.5-0.2-2.1c0.5-0.7,1-1.5-0.3-2.1c2.8,0,3.9-3.6,2.8-4.6c1.6,0.2,1.3-4.3,1.2-5.4c1,2.5,1.3,3.9,2.5,3.9
		c-1.3,0.8,0.3,2.6,2,3c-1.5,0.8,1.2,2.6,2.5,2.3c-2.3,1.2-2.5,3.8,3,5.3c-2.3-0.2-1,2.1,0,2.6c-0.8-0.5-3.8-0.5-3,0.8
		c-1.2,0.3-1.8,2.5,1.6,1.5c-0.5,0.8,1.5,1.5,3.9,2c-1.5,1.5-0.8,2.1,1.2,2.5c-0.8,0.5-1.8,1.2-0.3,2.1c-1.3,1-3,3,3,3.1
		c-2.6,1.2-0.3,1.8,1.2,2.6c-4.9-0.2-3.5,3.8,0.2,3.9c-2,0.7-0.8,2.5,1.5,3.3c-1.3,1.2,3.3,1.6,2-0.7c2.8-0.3,4.1-2.1,2.1-2.6
		c3.6-1,1.3-5.3,0.2-5.1c1.6-0.5,3.8-1.6,2.1-3c2.5,0.7,5.3-1.6-1.2-2.1c5.1-0.7,3.8-2.8,1.5-3.6c0.7-0.3,6.7,0.5,4.3-2
		c1.6-0.5-0.2-1.6-2.1-1.5c1.5-0.5,3.6-2,1.6-3c0.8,0.2,1.6-0.2,1-2.1c0.8,0.8,4.6,0.8,3.5-1c1.5-0.5,0.2-1.6-0.5-2.3
		c2.1-0.8,0.8-3.8,0-4.4c11.2-0.7,1-4.3,0-4.6c2.6,0,5.3-0.8,3.9-2c5.6,1.2,2.5-3.6,0.8-4.3c0.7-0.2,2.6-1.3,1.5-2.6
		c2.6,1.2,4.4,0.8,1.8-2c1.2-0.3,0.5-1.8-0.5-2c2.5,0.3,2.5-5.1,2.5-5.1s1.6,4.9,4.1,5.3c-2.3,0.8-1.8,4.4-0.2,4.8
		c-0.5,1.6,2.3,1.5,3.8,1.6c-4.3,0.2-3.5,2.6,0.2,3.1c-1.8,1.2,0,2.5,2.5,2c-2.3,0.8-2.3,2.5,0.7,4.1c-1.2,0.7-2.1,2-1,3.1
		c-1.8,0.2,0,2.5,3.5,3.1c-4.4,0.2-5.4,1.6,0,3.5c-0.8,0.3-0.5,1.6,1.5,2.3c-3,1.3-2.8,3.8,2.5,3.9c-2,0.7-0.2,1.3,1.5,2.5
		c-9.4,0.7-4.3,4.6-0.7,3.9c-3.5,1.5,1.8,1.2,3.8,2.1c-3.3,0.3-7.2,0.8-5.6,1.6c-1.8,0.5-2,3,5.6,2.8c-1.3,0.8,1.2,3.3,2.3,3.9
		c-8.7,1.2-4.6,2.5-0.2,3.5c-1.3,0.3-2.5,2.6,2.3,2.1c-2.8,0.8-5.4,2.1-3.1,3.6c2.3,1.3,2,1.6,29.1,3.9c21.4,2.1,25,2.6,30,3.3
		c5.8,0.8,1.5-2.8-0.3-4.3c8.7,1.3,4.3-2.8,3.1-3.8c1.2,0,3.8-0.7,1.8-2c4.6,0.7,3.1-2.6,2.3-3.5c6.1-1.5,3-3.1,0.8-4.3
		c1.2-0.3,2.1-0.8,1.3-2c3.9,1.5,2.8-0.5,1.3-1.5c1.6,0.2,3.9-2.5,1.5-3.6c2.6-0.7,1.8-1.6,1.2-2.1c6.6-0.2-1-3.3,0.8-2.5
		c3-0.8,5.1-4.1,2.6-4.9c2.3-0.3,3.9-2.3,1.6-3.5c1.3-0.7,1.5-2.8,0.8-3.8c4.3,0.7,3-3,1.8-3.3c3.1,0.5,3.5-6.7,3.5-6.7
		s0.3,4.8,3.3,5.1c-1.8,1,1.6,3.1,3.1,3.6c-2.8,0-3.1,1.8-1.8,2.5c-2.5,0.2,0.2,3,2.1,3.6c-4.1,0.8-0.8,2.5,0.3,3.3
		c-2,0.3-1.8,1.8,0.3,2.3c-2.1,1-0.3,3.3,0.7,3.5c1.2,0.5,2.3,0.2,3.5-0.8c1.6-1.6-0.5-3.1-1.6-3.5c4.1-0.7,3.8-3.8,2.5-4.4
		c3.1-0.2,2.3-3.6,1-4.4c2.5,0,2.6-3,2.8-4.8c0.7,2.3,0.5,4.4,2,5.1c-1.8,2.6,0.5,4.6,2,4.4c-1.2,0.7,0.2,2.6,1.5,3.1
		c-3.8,1,1,3.9,2,3.9c-2.1,2,1.5,3.8,1.5,3.8s-2,2.1-1.5,4.1c0.5,2.3,3.8,1.6,4.8,1c2-1.6-0.3-3.9-1.2-4.4c3.5-0.2,2.6-3.9,1-4.4
		c3.3,0,7.6-1.2,2.8-2.5c-0.7,0.2,3.8-1.6,0.8-2.3c4.1,0.2,1.3-3.8,1.3-3.8s4.4-0.5,2.1-2.3c2.3,0.5,2.8-1.8,2.8-1.8
		s-0.5,2.8,3.1,3.9c-2.3,1.2,0.7,1.2,1.2,1.6c-3.8,1.2-0.8,2.6,1,3.1c-2.1,0.5-2,2.1-0.2,3c-1.8,0.3,0.2,1.8,1.8,2.1
		c-2.6,2-1.5,4.3,0.7,4.6c-2.6,3.6,1.5,3.1,2.5,2.5c1-0.5,1.5-1.5,1.2-2.1c-0.3-0.7-1-0.7-1.8-1c3.6-1,1.8-3.1,0.7-3.8
		c4.8-0.5,3.5-3.5,2.5-4.1c1.3-0.2,2.6-0.7,1.8-1.6c1-0.2,0.7-1.5,1.2-3c0.2,2.1,0.5,3.8,1.6,4.1c-0.8,0.8,0.3,1.5,0.8,1.8
		c-3.1-0.7-0.7,2,0.3,2.1c-1.5,1.2-0.3,1.6,0.8,1.6c-1,1-0.3,1.5,0.8,1.8c-1.3,1,0.3,3.1,2.6,2.3c3.5-1.2,0-3.5,0-3.5
		c2,0,3.5-0.7,2.5-1.6c3.6,1.2,5.8-2,2.8-3.5c1.2-0.3,2.5-3-0.5-3.8c3.5,0.7,5.8-0.5,3.6-3.1c2.1,0.3,2-1.6,2.1-2.6
		c0.5,2.3,1.3,2.3,2.1,2.5c-1.3,1.5-0.2,2.1,0.7,2.6c-0.3,0.8,0.5,2,2,1.8c-0.8,0.7,0.2,1.5,1,1.5c-3.9,0.3-2.8,2.6-1,2.5
		c-0.3,1.5,0,2,2.3,1.6c-1.5,1.8,1.2,2.1,2.1,2.1c-3.5,0-3,3.8-0.7,3.1c-0.2,2.1,3.3,0.7,4.4,1.2c-2.5,2.3-1.8,4.1,3.3,3.1
		c-2.5,3.5,2,2.5,2.3,1.3c3.1,2.1,4.1-1,2.1-2c1.3-0.2,1-1.5-1.2-2c2.8,0,2.1-0.8,1.6-1.6c2.1,0.7,3-0.5,2.1-2
		c2.3,0.5,2.3-2.1,2.3-2.1s0.3,1.6,2,1.3c-0.8,1.8,0.7,2.3,2.8,1.8c-0.8,1.8,0.2,2.3,1.5,2.5c0,0.8,0.2,2,1.2,2.5l-0.3,0.7
		c-1.2,2-1.8,3.6-1.8,4.6c0,2,1.2,3.6-1,5.1l-0.7,0.5c-19.9-1.3-52.8,1.6-66.3,3.1c-14.8,1.5-21.6,2.1-21.6,2.1
		c-30.1,4.3-21.2,4.9,19.7,10c12.3,1.5,13.5,2.3,16.6,2.5c3.1,0.2,4.8,1.2,15.5,2.5C577,279.1,585.6,281.3,587.6,281.4 M255.2,103.1
		h0.2l0.3-0.2h0.2h0.2l0.2-0.2h0.3l0.2-0.2l0.2-0.2h0.2l0.2-0.2h0.3v-0.2h0.2v-0.2h0.2l0,0l0.2-0.2l0,0l0.2-0.2l0,0l0,0
		c0.8-0.8,1.8-1.2,1.6-2.1c-0.2-0.8,0-2,0-2.5c0-1.6-1.2-1.2-2-0.7c-0.8,0.3-1.2,1.2-1.8,1.8c-0.8,0.5-1.8,1.3-3.1,1.8
		c-1.5,0.5-2.3,1-1.8,1.8c0.5,0.7,0.2,1.5,1.3,1.8C253.5,103.9,254.5,103.2,255.2,103.1z M281.2,157.2v0.2v0.2l0.2,0.2v0.2v0.2v0.2
		v0.5v0.3v0.3v0.2v0.2v0.2v0.2v0.2v0.2v0.2v0.2l0,0v0.2v0.2l0.2,0.2l0,0v0.2l0,0l0,0l0.2,0.2l0,0l0,0l0,0l0,0h0.2l0,0l0,0l0,0
		c1,0.2,1,0.8,2.1,1c0.7,0,0.3-1,1-1.3c0.8-0.5,1.2,1.2,2.3-1.5c0.5-1.2,1.2-1.2,1.5-1.8c0.5-0.8,0.3-2.1,0-3
		c-0.2-0.8-0.5-2.3-1.2-2.8c-2.5-1.5-4.3-0.7-4.4,0.7c-0.2,0.8-1,0.8-1.2,1.6C281.8,155.7,281,155.9,281.2,157.2z M307.3,125.9v0.2
		l0,0l0,0v0.2h-0.2v0.2v0.2v0.2v0.2v0.2v0.2v0.3v0.2v0.3v0.5v0.5v0.7l-0.2,0.7v0.7v0.7v0.8v0.7v0.8v1.5v1.5v0.8v0.7l-0.2,0.8v0.7
		v0.7v0.7v0.5v0.5v0.3v0.2l-0.2,0.3v0.2v0.2v0.2v0.2v0.2c-0.2,1.5,0.3,3,1.2,3c0.8,0,1.5-1,1.5-1s0.7-0.8,0.7,0.3
		c0.2,1.2-0.2,1,0.2,1.3c0.7,0.5,1.5,0.5,2.3-1.2c0.7-1.8-0.2-3.9,1.3-3.8c3.5,0.5,2-2.8,2.6-4.3c0.5-1.6,0.7-6.9,0.5-7.6
		c-0.2-0.5-2.1,0.3-2.1-0.7c-0.2-1.8,1-4.1-1-4.1c-1.5,0-0.8,1.3-1.6,1.5c-0.8,0-0.8,0.2-1.6-0.2c-0.3-1-0.8-1-1.5-1.3
		C308.3,125.8,307.7,125.6,307.3,125.9z M277.1,113.6v0.2v0.2v0.2v0.2v0.2v0.2l0.2,0.2l0,0v0.2v0.2l0,0l0.2,0.2v0.2l0,0v0.2l0.2,0.2
		l0,0l0.2,0.2l0,0v0.2h0.2v0.2h0.2l0,0l0.2,0.2h0.2l0,0l0.2,0.2l0,0h0.2h0.2l0,0c1.2,0.3,1.5,0,2.5,0.5c1.3,0.7,1.6,0.8,3.5,1
		c1.8,0.2,2.3-0.2,2.3-0.8c0-0.8,0.5-2.1,0.8-2.5c0.3-0.7,0.7-2.3-0.2-2.6c-0.8-0.2-2.1-0.2-3.5-0.8c-1.2-0.7-1.3-1.5-3-1.5
		c-1.5,0-1.5,1-2.5,1.8C278,112.4,277.2,111.9,277.1,113.6z M307.5,111.6L307.5,111.6v0.2l0,0l0,0l0,0v0.2l0,0h-0.2l0,0v0.2l0,0l0,0
		l0,0l0,0v0.2l0,0l0,0h0.2l0,0v0.2l0,0l0,0v0.2h0.2l0,0v0.2h0.2l0,0h0.2v0.2h0.2l0,0v0.2h0.2h0.2v0.2h0.2v0.2h0.2v0.2h0.2v0.2
		c0.5,0.5-1.2,0.8-0.3,2.1c0.8,1.3,2.1,1,3.9,1.3c2.1,0.2,0.5,1,1.8,2.5c0.8,1,2,1.2,3.9,1.6c1.8,0.5,1,2,3.3,1.8
		c1.5-0.2,5.3-0.7,6.1-2c0.8-1.3,0-2-1.3-3.3c-0.5-0.3,0.7-2-0.3-3.6c-1-1.8-4.1-2.5-4.9-3.1c-1-0.8-2.1-2.5-4.3-3.1
		c-1.6-0.5-0.2-1.2-3-1.3c-1.3,0-3.5,1.2-5.4,1.5C307.5,108.3,308.5,110.1,307.5,111.6z M306.3,89.7h-0.2v0.2v0.2v0.2l0,0v0.2v0.2
		h0.2v0.2v0.2l0.2,0.2l0,0v0.2l0.2,0.2l0.2,0.2v0.2l0.2,0.2V92l0.2,0.2l0.2,0.2l0.2,0.2v0.2l0.2,0.3l0.2,0.2l0.2,0.3l0.2,0.2
		l0.2,0.3l0.2,0.3l0.2,0.2l0.2,0.3l0.2,0.5l0.2,0.3c0.5,1,2,0.3,4.3,1.5c1.8,0.8,2.8,0.5,4.3,1.2c1.6,0.7,1.8,1.8,2.8,2.5
		c1,0.8,1.3,0.3,2.3,0.8c0.8,0.3,1.2,1.5,2.5,2.3c1.2,0.8,0.8,1.5,2.3,1.8c1,0.2,0.8-0.7,1.6-0.3c1.2,0.3,1.8,0.3,2.5-0.2
		c0.7-0.7,0-1.5,0-2.6c0-0.7,1.2-0.2,1.2-1c0.3-1.2-1.2-2.1-1.5-2.8c-0.3-0.7,0-1.3-1-3c-0.8-1.8-0.8-0.7-2-2.5
		c-0.8-1.5-0.5-2.6-2-4.4c-2.5-2.3-4.8-2.6-9.4-3.6c-3.9-0.8-8.2-2-9.5-0.8C306,85.6,307.2,87.1,306.3,89.7z M327.1,76.1h0.2l0,0
		l0.2-0.2h0.2l0,0l0.2-0.2l0,0l0,0l0.2-0.2l0,0h0.2v-0.2l0,0v-0.2h0.2l0,0v-0.2l0,0v-0.2h0.2l0,0v-0.2l0,0l0,0v-0.2l0,0v-0.2l0,0
		l0,0v-0.2v-0.2l0,0v-0.2l-0.2-0.2l0,0v-0.2l-0.2-0.2l0,0v-0.2h-0.2v-0.2h-0.2l0,0l-0.2-0.2l0,0l0,0l0,0h-0.2l0,0
		c-0.7-0.2-2.5-0.7-3.8-0.7c-1.2,0-1.6-1-4.6-1.2c-3-0.2-7.1-0.5-9.7-0.2c-1.5,0-1.5,1.5-1.2,1.8c2,1.8,0.2,2.8-0.3,3.5
		c-0.7,0.7-0.3,1.2,0.5,2c1,0.8,2.3,0.8,3.1,1.2c1,0.3,1.6,1,3,1.2c1.3,0.2,4.6,1,5.4,1.2c1,0,1.8,0.2,2.1-0.5
		c0.5-0.8,1.6-1.5,2.8-2C325.9,78.9,325.8,76.7,327.1,76.1z M260.4,36.1L260.4,36.1L260.4,36.1v0.2l0,0l0,0v0.2l0,0l0,0l0.2,0.2l0,0
		l0,0v0.2h0.2l0,0l0,0l0.2,0.2l0,0h0.2l0,0h0.2l0,0l0.2,0.2h0.2l0,0h0.2h0.2l0,0h0.2h0.2l0.2,0.2h0.2l0,0c1.6,0,3.3,0.3,3.8-0.5
		c0.5-0.5,1.2-0.8,1.8-0.8c0.7,0,2.5,0.2,2.1-1.3c-0.2-1.5-2.5-1.6-4.9-1.5c-1.2,0.2-3.3-1.3-4.8-0.3
		C259,33.6,260.8,34.6,260.4,36.1z M307.2,47.8L307.2,47.8L307.2,47.8L307.2,47.8v0.2l0,0l0,0l0,0v0.2l0,0l0,0l0,0v0.2l0,0l0,0l0,0
		l0,0v0.2l0,0l0,0v0.2h0.2v0.2l0,0l0.2,0.2l0,0l0,0l0.2,0.2l0,0l0.2,0.2l0,0l0,0h0.2v0.2h0.2l0,0h0.2v0.2l0,0h0.2l0,0l0,0l0,0
		c1,0.2,2-0.7,2.6-1.2c0.5-0.5,1.2-1,2-1.6c0.8-0.7,0-1.6-0.8-1.6c-0.7,0-2.6,1-2.6,1S308,46.8,307.2,47.8z M317.2,41L317.2,41
		l0.2,0.2l0,0h0.2h0.2h0.2h0.2h0.2h0.2h0.2h0.2h0.2h0.2h0.2h0.3h0.5c1.3,0,2.1,0.3,4.4-0.3c1.6-0.3,1.6-0.8,2-1.8
		c0.2-1-1-1.3-2.1-1.8c-1.3-0.5-3.3,0-4.8,0.3c-1.5,0.2-3.3,2-3.3,2S316.4,40.9,317.2,41z M285.3,28v-0.2l0.2-0.3l0,0v-0.2v-0.2l0,0
		l-0.2-0.2l0,0v-0.2v-0.2l0,0v-0.2v-0.2l0,0l-0.2-0.2l0,0V26H285v-0.2h-0.2v-0.2h-0.2v-0.2h-0.2v-0.2h-0.2h-0.2l-0.2-0.2l0,0h-0.2
		l0,0l0,0c-1.8-0.7-4.3-0.7-5.4-0.5c-1.2,0.2-4.4,0.7-5.6,1.2c-1.2,0.3,1,2-2.5,1.3c-0.3-0.2-1.3,0.7-0.2,1.6c1.3,1,2.3,0.7,2.8,0.7
		c0.5,0,1.8,0,2.5,0.2c0.7,0.2,0.7,0.5,2.3,0.5c1.6,0.2,2.1-0.5,4.1-0.5C283.8,29.5,285.1,28.8,285.3,28z M305.2,31.1L305.2,31.1
		L305.2,31.1V31l0,0l0,0l0,0l0,0V31.1L305.2,31.1L305.2,31.1v0.2l0,0l0,0v0.2v0.2l0,0v0.2l0,0V32v0.2v0.2v0.2v0.3L305,33v0.3v0.5
		v0.3v0.3v0.3v0.8v0.3l-0.2,0.3v0.3v0.3l0.2,0.3v0.3v0.2l0,0v0.2v0.2v0.2l0,0v0.2v0.2l0,0v0.2l0,0h0.2c0.5,1.5,1.5,1.3,1.8,0.7
		c0.7-1,0.8-1.2,1.8-1.6c1-0.3,0-3.1,0.5-4.3c0.7-1,1.2-6.3,0.7-9.2c-0.3-1.3-0.3-2.3-1-3.5c-1-1.8-2-2.8-2.8-2
		c-0.8,1-0.2,1.2-0.8,3.5C305,23.4,305.2,32.5,305.2,31.1z M323,8.1v0.2l0,0l0,0v0.2l0,0l0,0l0,0v0.2h0.2l0,0l0,0v0.2l0,0h0.2l0,0
		l0,0v0.2h0.2l0,0l0,0h0.2v0.2h0.2h0.2l0,0h0.2l0.2,0.2l0,0h0.2l0,0l0,0h0.2l0,0l0,0l0,0h0.2l0,0l0,0l0,0l0,0l0,0h0.2l0,0l0,0l0,0
		l0,0l0,0l0,0l0,0l0,0l0,0l0,0h-0.2l0,0l0,0c-0.7-0.2,1.8,0.8,2.5,0.3c1.3-1.5,2.3-1.3,3-3c0.3-0.8,0.8-1.6,1.3-2.3
		c0.5-0.7-0.3-1.6-1-1.8c-0.7-0.2-1.2,0.2-2.5,0.8c-1.3,0.7-2.3,1.6-3.1,2.3C324,6.3,323.1,7,323,8.1z M322.5-1.9v0.2v0.2l0,0v0.2
		l0,0v0.2l0,0h0.2v0.2l0,0l0.2,0.2l0,0l0,0l0.2,0.2l0,0h0.2l0,0l0.2,0.2h0.2l0,0h0.2h0.2h0.2h0.2h0.2l0,0h0.2h0.2h0.3h0.2l0.2-0.2
		l0,0h0.2c1.5-0.3,2.5-1.8,3.5-2.6c1-0.8,1.3-1.6,1.2-3c-0.3-1.3-3.8,0.3-3.1-0.2c0.7-0.3-2.1,1.8-2.6,2.1
		C323.3-3.7,322.5-2.8,322.5-1.9z M319.8-11.1L319.8-11.1L319.8-11.1h0.2l0,0h0.2l0,0l0,0h0.2v-0.2l0,0l0,0h0.2l0,0v-0.2h0.2l0,0
		l0,0v-0.2h0.2l0,0v-0.2l0,0L321-12l0,0l0,0l0.2-0.2l0,0v-0.2l0,0h0.2v-0.2l0,0c0.7-0.8,1.2-2.5,1-3.3c-0.2-0.7,1.2-2,0.5-2.6
		c-0.7-0.8-2.6,2-3.1,2.6c-0.3,0.8-1.6,2.8-1.5,3.6C318.4-11.5,319-11.1,319.8-11.1z M304.7-11.6v0.3v0.3v0.3v0.3v0.2v0.3v0.3v0.2
		l0.2,0.3v0.2v0.3v0.2l0.2,0.2v0.3v0.2l0.2,0.2v0.2v0.2l0.2,0.5v0.3l0.2,0.2V-6v0.2v0.2v0.2v0.2v0.2v0.2v0.2l0,0
		c-0.2,1.8-0.2,2.8,0.7,4.6c0.3,1-0.8,7.6,0.2,8.2c1.2,0.5,1.8-1.3,2.6-2.3c0.8-1,2-7.6,2.3-8.7c0.8-2.3,1.5-6.6,1.8-8.6
		c0.2-2-0.2-5.9-1.2-9.4c-0.7-2.1-1.6-2.6-2.5-3.5c-1-0.7-1.6-0.5-2,0.2c-0.2,0.7-0.5-0.5-0.5-0.5c-1.3-0.7-1.6-0.2-1.8,0.7
		c-0.3,0.5-0.5,3.6-1,4.8C303.2-17.6,305.2-16.1,304.7-11.6z M286.4-35.8h0.2l0,0l0,0l0,0l0,0h0.2l0,0V-36h0.2l0,0v-0.2h0.2v-0.2
		v-0.2l0,0l0.2-0.2v-0.2l0,0V-37v-0.2l0.2-0.2v-0.2l0,0v-0.2V-38v-0.3v-0.2v-0.2v-0.2V-39h0.2v-0.2v-0.2c0-0.8,0.2-2.3-0.7-3.6
		c-1-1.2-1.8-0.2-2.3-0.2l-0.3,3c0.3,0.3,0.8,1.3,0.8,2.3C285.3-36.8,285.6-35.7,286.4-35.8z M290.5-45.4L290.5-45.4L290.5-45.4
		L290.5-45.4L290.5-45.4L290.5-45.4L290.5-45.4h0.2l0,0l0,0h0.2l0,0l0,0h0.2l0,0h0.2l0,0h0.2l0,0l0.2-0.2l0,0h0.2l0.2-0.2h0.2h0.2
		v-0.2h0.2l0,0h0.2l0,0h0.2l0,0h0.2V-46c0.8,0,1.2-0.3,1.8-1.6c0.3-1,0.2-2.5-0.3-3.5c-0.3-1-1.5-0.2-2.1-0.7c-0.7-0.5-1.3-1.5-2-1
		c-0.5,0.5-1.2,2.1-1.2,3C289.1-49,289.9-46.4,290.5-45.4z M289.2-62.5v0.2v0.2v0.2l0,0v0.2h-0.2v0.2l0,0v0.2l0,0l-0.2,0.2v0.2
		l-0.2,0.2v0.2l0,0v0.2l0,0l-0.2,0.2l0,0v0.2l0,0v0.2l0,0l-0.2,0.2v0.2v0.2l0,0v0.2c-0.2,1.5,1.8,3.3,2.1,3.8c0.2,0.5,3.1,0.8,3.3,0
		c0.3-1.3-0.2-2,0.2-4.3c0.3-2-1.5-2.6-2.1-3.8c-0.7-1-1.3-1.5-1.8-0.8C289.4-64.1,289.4-63.3,289.2-62.5z M301.9-70.7v0.2v0.2l0,0
		l-0.2,0.2v0.2v0.2l0,0v0.2v0.3v0.3v0.2v0.2v0.2l-0.2,0.2l0,0v0.2v0.2l0,0v0.2v0.2l0,0v0.2l0,0l0,0l0,0v0.2l0,0l0,0l0,0l0,0l0,0l0,0
		l0,0l0,0l0,0c0,0,0.2,2.1-0.5,3c-0.5,0.7-0.2,1.2,0.3,1.8c0.7,0.5,0.8,0.3,1.5,0c0.8-0.3,0.5,0.8,0.8,1.3l2-0.5
		c0.2-0.5,0.8-2.5,1-3.8c0.3-1.8,0.5-3.5,0.2-6.7c-0.3-3.5-3.5-1.5-3.5-1.5S301.9-73,301.9-70.7z M271.8-0.9L271.8-0.9l0.2,0.2l0,0
		v0.2l0,0v0.2h0.2v0.2l0.2,0.2V0h0.2v0.2l0,0l0.2,0.2l0,0l0.2,0.2l0,0h0.2v0.2h0.2l0,0l0.2,0.2h0.2l0,0l0.2,0.2h0.2v0.2h0.2l0.2,0.2
		h0.2l0.2,0.2h0.2l0.2,0.2l0,0l0.2,0.2l0,0l0.2,0.2c1.3,1-0.8,2,1,3.5c1.5,1,0.5,1.8,5.3,2.1c2.8,0,2.1-0.8,4.6-2
		c2.1-1-1.6-2.5-1-4.1c0.2-0.5-1.5-2.5-4.1-2.8c-2.1-0.2-2.1-2.1-3.1-2.6c-1-0.5-2-0.3-3.5-0.7c-1.5-0.2-2.6-0.8-3.3,0.3
		C270.5-3.4,271.3-2.4,271.8-0.9z M318.5,166.6h0.2l0,0v0.2l0,0h0.2h0.2h0.2v0.2h0.2h0.2h0.2l0,0l0.2-0.2h0.2h0.2h0.2h0.2h0.2
		l0.2-0.2h0.3l0.3-0.2h0.2h0.2h0.2l0,0h0.2h0.2h0.2h0.2l0,0h0.2c3,0.7,3,0,5.3-0.2c3-0.3,3-1.6,3.9-1.8c1.3,0,3.3,0,5.4-1.3
		c0.8-0.7,0.8-1.5,0.7-2.1c0-1.3-0.8-1.2-1.8-1.2c-1,0-0.2-0.7,0.8-1c0.8-0.2,1.6-0.3,2.3-1c0.5-0.5,0.5-1-0.7-2
		c-1.3-0.7-2,0-12.3,3c-10.4,3-9.4,5.3-8.6,5.6C319.3,164.6,317.5,165.9,318.5,166.6z"/>
	<path id="path6712" fill="#99542C" d="M246.1,195.4l-0.3,0.2h-0.2h-0.3l-0.2,0.2H245h-0.3h-0.2h-0.2H244l-0.2-0.2h-0.2h-0.3H243
		l-0.5-0.2h-0.3l-0.5-0.2h-0.5L241,195h-0.2h-0.3h-0.2H240h-0.2h-0.3h-0.2H239l-0.2,0.2c-3.8,0.8-13.3,1.3-19.4,2.1
		c-1.3,0.3-1.5,0.3-7.6,0.8c-3.6,0.3-7.4,0.7-8.4,0.2v0.2c0.3,1.3,1.2,3.3,2.3,5.9c1.3,3.1,3.8,11.7,4.3,13.7c0.5,2-0.3,4.6,0.2,6.3
		c0.7,1.8,2.6,3.3,3.3,4.8c0.7,1.5,5.9,12,8.2,15.6c2,2.8,7.9,14,10.7,19.9l0.2,0.2c0.5-0.2,1.2-0.5,1.6-0.7c1.2-0.5,1-0.8-0.5-1.2
		c1.2-0.2,2.5-1.3,1.3-1.8c1.3-0.7,2.5-2.1,1.3-2.5c0.8-0.7,1.3-3.5,1.3-3.5s0.3,1.6,1.5,2.8c-1.2,0,0.2,0.7,0.7,1.2
		c-0.7,0.3,0.3,0.7,1,1.3c-1,0.3-0.7,0.8,0.3,1.2c-0.7,0.5,0.5,0.8,1.5,0.3c-0.5,0.8-1,0.8-1,0.8s5.1-0.5,7.7-2.3
		c2.6-1.8,1.6-2.5-0.5-3.5c2-0.7,6.9-2.1,5.3-3.6c1.3-1-0.5-1.6-2.1-2c5.9-1.3,6.3-2.3,5.6-2.6c3.1-1.8-0.7-2.6-1.6-3.3
		c3.9,0.8,3.1-0.5,2.6-1.5c3.3,1.5,3.5-2,2.1-3c1.3-0.2,1.5-2-0.5-3.1c3.3,0.3,5.3-0.3,2.6-2.1c1.6-0.7,1.8-1.5,1.2-2.1
		c1.8-1.2,0.7-2.3-0.2-2.6c1.8-0.8,1.6-2.8,0.7-3.3c1.5-1.8,2.1-5.9,2.1-5.9s0,3.3,2.3,4.8c-0.8,0.8-0.3,2.5,1,2.5
		c-1.3,2-0.5,2.6,1.8,3c-0.8,1.2-1.6,2.3,1.5,2.3c-2.6,1.8-1.6,3,0.8,2.6c-2.6,1-1,2.6,1.8,2.1c-2,1.5-2,3.1,1,2.6
		c-2.8,1.5-3.1,3.5,1.3,3.3c-1.5,0-3,3.9,2.6,5.1c0.5-4.4,2.1-35.1,2.5-40.5c0.2-6.3-0.2-10.4-0.2-10.4s-0.5-0.3-3.1-0.2
		c-2.5,0.3-3.6,1.2-7.6-0.2s-4.6-0.5-7.4-0.2c-2.5,0-3.8-0.3-6.6,0.7c-3,1.2-6.1-0.3-7.4-1.5c-1.3-1,0-3.3,2.1-3.3
		C256.6,194.9,248.7,194.4,246.1,195.4z"/>
	<path id="path6714" fill="#FFFFFF" d="M587.6,281.4h-0.2h-0.3h-0.2l-0.3-0.2h-0.3h-0.5l-0.3-0.2h-0.5l-0.3-0.2h-0.5l-0.5-0.2
		l-0.5-0.2h-0.5l-0.7-0.2l-0.5-0.2h-0.7l-1.2-0.3l-1.2-0.2l-1.2-0.3l-1.2-0.2l-1.2-0.2l-0.5-0.2h-0.7l-0.5-0.2h-0.5l-0.5-0.2h-0.5
		c-10.7-1.3-12.3-2.3-15.5-2.6c-3.1-0.2-4.3-0.8-16.6-2.5c-41-5.1-49.9-5.8-19.7-9.9c0,0,6.7-0.8,21.6-2.3c13.3-1.5,46.4-4.4,66.3-3
		l-0.5,0.3c-4.3,3.6-12.8,14.2-14.8,16.3c-1.3,1.8-3.1,3.5-4.4,5.8C587.9,281,587.9,281.3,587.6,281.4z"/>
	<path id="path6718" fill="#FFFFFF" d="M385.7,307.6L385.7,307.6h0.2l0,0h0.2l0.2-0.2h0.2l0.2-0.2h0.2l0.3-0.2h0.3l0.2-0.2l0.3-0.2
		h0.3l0.5-0.2l0.3-0.2l0.5-0.2h0.3l0.5-0.2l0.5-0.2l0.5-0.2l0.5-0.2h0.5l0.5-0.2l0.7-0.2h0.5l0.7-0.2l0.5-0.2h0.7l0.7-0.2h0.5h0.7
		l0.7-0.2c7.7-0.3,6.6,0.5,14,1.2c0.8,0.3,2.6,0.3,4.4,0.7c1.8,0.3,5.4,0.3,8.1,1.2c2.5,1,6.1,2.8,8.2,3.3c2.1,0.3,3.6,0.8,5.4,1.5
		c1.8,0.5,2.6,1,4.3,1.6c1.6,0.7,5.9,2.3,9.9,3.1c3.9,1,6.6,1.2,9.5,1.8c3,0.8,8.9,1.8,11.4,2.8c3.5,1.6,8.7,3.9,11,6.3
		c2.3,2.6,3.5,3.1,5.3,10.4c1,3.5,0,4.6-0.8,8.6c-0.8,3.9-1.5,5.1-1,6.4c0.3,1.5,0.2,3.6-0.3,4.9c-0.7,1.3-1.5,1.6-2,2.5
		c-0.5,0.8-2.3,2.1-2.3,2.1s-1-0.3-1.3-1c-0.3-0.5-0.5-1.2-1-1.8c-0.3-0.8-1.2-1.6-1-2.5c0.2-0.8-0.5-1.3,0.3-2.8
		c1-1.2,1.5-2.5,1.5-2.5s1.2-2.5,1.5-4.1c0.3-1.6,1-4.6,0.8-5.6c-0.2-1-0.5-3.6-0.5-3.6l-1.5-2c0,0-1.6-0.7-2.1,0.7
		c-0.5,1.8-0.3,1.3-1.5,5.4c-0.8,3-0.5,2.1-2,5.8c-1.5,3.6-2.3,4.4-2.8,6.6c-0.5,2.1,2.8,4.3,3.6,7.9c0.8,3.9,1.5,5.3,2.1,6.1
		c0.5,1,0.5,2,1.2,2.1c0.7,0.2,1.6,0.3,0.8,2.6c-0.7,2.1-2.8,7.1-3.1,9.7c-0.3,2.5-0.2,4.1-0.3,4.3c0,0.3-0.5,0.3-0.7,0.8
		c-0.2,0.3-0.2,0.5-0.2,1.3c0,1.2-0.3,4.1-0.3,4.1s0.3,1.2-1,1.2c-1.2-0.2-7.4-0.2-8.2-0.2c-0.8-0.2-2.3-0.7-2-1.6
		c0.2-1.3,0.3-3.3,1-3.8c0.8-0.3,1.8-0.8,1.8-0.8s0.8-2.1,1.2-3.1c0.3-1.2,0.5-2.6,1-3.5c0.3-0.8,0.7-3.6,0.7-4.6
		c0-0.8,0.2-4.4-2.1-7.6c-2-3.1-1.2-3-3-4.1c-1.8-1.2-4.4-2.8-6.7-3c-1.5-0.2-3.6,0.7-4.9,1.2c-1.2,0.7-3.6,1.8-5.8,2.8
		c-2.5,1.3-4.8,2.5-5.8,3c-0.8,0.5-1.6,0.2-1.8-0.8c-0.2-1,0-2-1.2-2c-1.2,0.3-1.6,0.3-3,0.8c-1,0.3-2.5,1.5-3.1,3.3
		c-0.5,1.8-0.8,2-1.5,3.9c-0.3,1.2-0.8,2.3-2.1,3.5c-1,0.8-0.8,0.3-3.1,2.5c-1.8,1.6-1.8,1.8-3,3.8c-1,2.1-0.8,3.5-1.2,4.1
		c-0.3,0.7-0.2,1.8-0.3,2.3c0,0.7-0.2,2.3-0.2,2.3s0,1.5-0.7,1.5c-2.8,0-6.3,0.2-7.6,0.2c-1.2,0-1.6-0.5-1.3-1.3
		c0.8-2,1.8-2.8,2-3.3c0.2-0.5,0.7-3.5,0.2-5.4c-0.3-0.8-2.3-3.5-2.6-4.1c-0.3-0.5-0.3-2.3-1.2-2.8c-1-0.7-2.5-2.5-2.8-3
		c-0.3-0.7-2.8-2-3.8-2c-1.2,0-7.4-1.3-8.9-2.1c-1.5-0.8-6.1-3.3-6.9-3.8c-0.8-0.5-3.6-2-4.4-2c-0.8,0-1.8-0.3-2.8,0.8
		c-1.8,1.6-2.5,1.6-3.3,2.5c-1,0.7-0.8,0.8-1.5,1.6c-0.5,1-1.8,3.5-2.1,4.3c-1.8,3.6-3.5,3.1-3.5,3.1s-1.6,0.8-4.1-3.1
		c-2.5-3.9-3.5-5.4-3.5-5.4s-1.5-1.2-2.5-1c-1,0.2-3.8,0.7-4.4,0.7c-0.8-0.3-2,0.2-2.8-1.2c-0.8-1.3-1.8-3.1-1.6-5.9
		c0.3-2.6-1-4.4-1.2-5.3c-0.2-0.7-1.2-1.6-1.8-3.6c-0.7-1.8-0.5-4.3-1.8-6.9c-1.5-2.1-2.1-6.9-2.1-6.9s0-1.2,0.2-3.1
		c0.3-2.1,0-3.8,0.7-6.4c0.5-2.5,1.2-4.3,3.3-5.9c1.5-1,2.6-3.1,4.6-3.9c1.6-0.7,3.8-2.3,5.3-2.3s2-1,5.1-0.5c3,0.7,5.3,1.3,7.2,1
		c1.8-0.3,3.9-0.3,5.6-2.8c1.8-2.3,3.3-4.6,4.1-5.1C382.2,309.9,385.7,307.6,385.7,307.6z M366.7,335.7L366.7,335.7L366.7,335.7
		L366.7,335.7h0.2l0,0l0,0l0,0h0.2l0,0l0,0h0.2h0.2h0.2h0.2l0.2,0.2h0.3h0.2l0.2,0.2h0.3l0.2,0.2h0.3l0.2,0.2l0.2,0.2l0.3,0.2
		l0.2,0.2h0.2l0.2,0.2v0.2h0.2l0.2,0.2v0.2l0.2,0.2l0,0l0.2,0.2v0.2l0.2,0.2v0.2l0.2,0.2v0.2l0.2,0.2v0.2v0.3l0.2,0.2v0.2v0.2v0.3
		v0.2v0.3v0.2c4.1-3.6,3.8-6.6,3.8-6.6s0.3-4.4-3.1-8.1c-3.6-3.5-4.1-2-3.8,0.5c0.3,2.5,1.2,3.1,0.2,4.9
		C368.1,333.6,366.7,335.7,366.7,335.7z M359.7,342.5v0.2h-0.2l0,0v0.2l0,0l0,0l-0.2,0.2l0,0l0,0v0.2h-0.2l0,0l0,0v0.2H359l0,0
		l-0.2,0.2l0,0v0.2h-0.2l0,0l-0.2,0.2h-0.2c-0.5,0.3-1.5,1.6,0.2,2c1.8,0.3,2.3,0.2,3.6,0c1.6-0.3,2.8-0.5,3.6-0.8
		c1-0.2,1.8-1.8,0-2.1c-2.3-0.7-2.6-2-4.1-1.8C360.2,341,360,342,359.7,342.5z"/>
	<polygon id="polygon6724" fill="#FFFFFF" points="387.1,-69.9 399.3,-69.9 411.3,-46.9 411.5,-46.9 411.3,-69.9 420.1,-69.9 
		420.1,-35.8 408.2,-35.8 395.7,-59 395.7,-59 396,-35.8 387.1,-35.8 	"/>
	<polygon id="polygon6726" fill="none" stroke="#FFFFFF" stroke-width="3.363100e-02" stroke-miterlimit="10.433" points="
		387.1,-69.9 399.3,-69.9 411.3,-46.9 411.5,-46.9 411.3,-69.9 420.1,-69.9 420.1,-35.8 408.2,-35.8 395.7,-59 395.7,-59 396,-35.8 
		387.1,-35.8 	"/>
	<path id="polygon6728" fill="#FFFFFF" d="M438-69.9h11.7l13.7,34.1H453l-2.6-7.2h-13.5l-2.8,7.2h-9.5L438-69.9z M443.9-62.8h-0.2
		l-4.6,13.3h8.9L443.9-62.8z"/>
	<path id="polygon6732" fill="none" stroke="#FFFFFF" stroke-width="0.553" stroke-miterlimit="10.433" d="M438-69.9h11.7l13.7,34.1
		H453l-2.6-7.2h-13.5l-2.8,7.2h-9.5L438-69.9z M443.9-62.8h-0.2l-4.6,13.3h8.9L443.9-62.8z"/>
	<polygon id="polygon6736" fill="#FFFFFF" points="470.2,-63.1 461.5,-63.1 461.5,-69.9 488.5,-69.9 488.5,-63.1 479.8,-63.1 
		479.8,-35.8 470.2,-35.8 	"/>
	<polygon id="polygon6738" fill="none" stroke="#FFFFFF" stroke-width="3.363100e-02" stroke-miterlimit="10.433" points="
		470.2,-63.1 461.5,-63.1 461.5,-69.9 488.5,-69.9 488.5,-63.1 479.8,-63.1 479.8,-35.8 470.2,-35.8 	"/>
	<polygon id="polygon6740" fill="#FFFFFF" points="493.6,-35.8 503.2,-35.8 503.2,-69.9 493.6,-69.9 	"/>
	<polygon id="polygon6742" fill="none" stroke="#FFFFFF" stroke-width="3.363100e-02" stroke-miterlimit="10.433" points="
		493.6,-35.8 503.2,-35.8 503.2,-69.9 493.6,-69.9 	"/>
	<path id="path6744" fill="#FFFFFF" d="M527.3-70.6h1l1.2,0.2h1l1,0.2l1,0.2l0.8,0.3l1,0.2l0.8,0.3l0.8,0.3l0.8,0.3l0.7,0.3l0.8,0.5
		l0.7,0.5l0.7,0.5l0.5,0.5l0.7,0.5l0.5,0.7l0.5,0.5l0.5,0.7l0.5,0.7l0.3,0.8l0.5,0.7l0.3,0.8l0.3,0.8l0.2,0.8l0.3,0.8l0.2,0.8l0.2,1
		l0.2,0.8v1v1l0.2,1c0,10.9-6.3,17.6-17.9,17.6s-17.9-6.7-17.9-17.6C509.4-63.8,515.5-70.6,527.3-70.6z M527.3-42.1h0.5h0.5l0.5-0.2
		h0.5l0.5-0.2l0.3-0.2l0.5-0.2l0.3-0.2l0.3-0.3l0.5-0.2l0.3-0.3l0.3-0.3l0.2-0.2l0.3-0.3l0.3-0.5l0.2-0.3l0.3-0.3l0.2-0.5l0.2-0.3
		l0.3-0.5l0.2-0.3v-0.5l0.2-0.5l0.2-0.5l0.2-0.5v-0.5l0.2-0.5v-0.5v-0.5l0.2-0.5v-0.5v-0.7c0-5.9-2.3-10.9-8.1-10.9
		c-5.9,0-8.2,4.9-8.2,10.9C519.1-47.2,521.4-42.1,527.3-42.1z"/>
	<path id="path6748" fill="none" stroke="#FFFFFF" stroke-width="0.5535" stroke-miterlimit="10.433" d="M527.3-70.6h1l1.2,0.2h1
		l1,0.2l1,0.2l0.8,0.3l1,0.2l0.8,0.3l0.8,0.3l0.8,0.3l0.7,0.3l0.8,0.5l0.7,0.5l0.7,0.5l0.5,0.5l0.7,0.5l0.5,0.7l0.5,0.5l0.5,0.7
		l0.5,0.7l0.3,0.8l0.5,0.7l0.3,0.8l0.3,0.8l0.2,0.8l0.3,0.8l0.2,0.8l0.2,1l0.2,0.8v1v1l0.2,1c0,10.9-6.4,17.6-17.9,17.6
		c-11.7,0-17.9-6.7-17.9-17.6C509.4-63.8,515.5-70.6,527.3-70.6z M527.3-41.9h0.5l0.5-0.2h0.5l0.5-0.2l0.5-0.2h0.3l0.5-0.3l0.3-0.2
		l0.3-0.2l0.5-0.3l0.3-0.2l0.3-0.3l0.2-0.3l0.3-0.3l0.3-0.3l0.2-0.5l0.3-0.3l0.2-0.3l0.2-0.5l0.3-0.5l0.2-0.3v-0.5l0.2-0.5l0.2-0.5
		l0.2-0.5v-0.5l0.2-0.5v-0.5v-0.5l0.2-0.5v-0.5v-0.7c0-5.9-2.3-10.9-8.1-10.9c-5.9,0-8.2,4.9-8.2,10.9
		C519.1-47.2,521.4-41.9,527.3-41.9z"/>
	<polygon id="polygon6752" fill="#FFFFFF" points="551.2,-69.9 563.2,-69.9 575.4,-46.9 575.6,-46.9 575.2,-69.9 584,-69.9 
		584,-35.8 572.1,-35.8 559.6,-59 559.6,-59 559.9,-35.8 551.2,-35.8 	"/>
	<polygon id="polygon6754" fill="none" stroke="#FFFFFF" stroke-width="3.363100e-02" stroke-miterlimit="10.433" points="
		551.2,-69.9 563.2,-69.9 575.4,-46.9 575.6,-46.9 575.2,-69.9 584,-69.9 584,-35.8 572.1,-35.8 559.6,-59 559.6,-59 559.9,-35.8 
		551.2,-35.8 	"/>
	<path id="polygon6756" fill="#FFFFFF" d="M601.9-69.9h11.7l13.8,34.1H617l-2.8-7.2h-13.3l-2.8,7.2h-9.7L601.9-69.9z M607.8-62.8
		h-0.2L603-49.5h8.9L607.8-62.8z"/>
	<path id="polygon6760" fill="none" stroke="#FFFFFF" stroke-width="0.553" stroke-miterlimit="10.433" d="M601.9-69.9h11.7
		l13.8,34.1H617l-2.8-7.2h-13.3l-2.8,7.2h-9.7L601.9-69.9z M607.8-62.8h-0.2L603-49.5h8.9L607.8-62.8z"/>
	<polygon id="polygon6764" fill="#FFFFFF" points="631.7,-69.9 641.1,-69.9 641.1,-42.6 655.9,-42.6 655.9,-35.8 631.7,-35.8 	"/>
	<polygon id="polygon6766" fill="none" stroke="#FFFFFF" stroke-width="3.363100e-02" stroke-miterlimit="10.433" points="
		631.7,-69.9 641.1,-69.9 641.1,-42.6 655.9,-42.6 655.9,-35.8 631.7,-35.8 	"/>
	<path id="path6768" fill="#FFFFFF" d="M451.2-15.3h11.7c11.2,0,16.5,3.6,16.5,11.2c0,6.9-5.4,11-14.5,11h-3.9v11.8h-9.7V-15.3z
		 M460.9,0.5h2.6c3.5,0,6.1-1.2,6.1-4.8c0-3.5-2.6-4.6-6.1-4.6h-2.6V0.5z"/>
	<path id="path6772" fill="none" stroke="#FFFFFF" stroke-width="0.5535" stroke-miterlimit="10.433" d="M451.2-15.3h11.7
		c11.2,0,16.5,3.6,16.5,11.2c0,6.9-5.4,11-14.5,11h-3.9v11.8h-9.7V-15.3z M460.9,0.5h2.6c3.5,0,6.1-1.2,6.1-4.8
		c0-3.5-2.6-4.6-6.1-4.6h-2.6V0.5z"/>
	<path id="polygon6776" fill="#FFFFFF" d="M491.5-15.3h12l14.2,34.1h-10.9l-2.6-7.2h-13.8l-3,7.2h-9.9L491.5-15.3z M497.4-8.3
		L497.4-8.3l-4.8,13.5h9.2L497.4-8.3z"/>
	<path id="polygon6780" fill="none" stroke="#FFFFFF" stroke-width="0.553" stroke-miterlimit="10.433" d="M491.5-15.3h12l14.2,34.1
		h-10.9l-2.6-7.2h-13.8l-3,7.2h-9.9L491.5-15.3z M497.4-8.3L497.4-8.3l-4.8,13.5h9.2L497.4-8.3z"/>
	<path id="path6784" fill="#FFFFFF" d="M521.8-15.3h17.4c6.6,0,11.8,2.8,11.8,8.6c0,4.6-2.3,7.6-7.1,8.7l0,0
		c3.1,0.8,3.3,3.3,5.1,7.4l3.6,9.4h-10.2l-2-6.3c-2.1-5.8-3.3-7.2-7.1-7.2h-2v13.5h-9.7V-15.3z M531.5-1.1h2.6
		c3.1,0,7.1-0.2,7.1-3.9c0-3.3-3.5-3.8-7.1-3.8h-2.6V-1.1z"/>
	<path id="path6788" fill="none" stroke="#FFFFFF" stroke-width="0.5535" stroke-miterlimit="10.433" d="M521.8-15.3h17.4
		c6.6,0,11.8,2.8,11.8,8.6c0,4.6-2.3,7.6-7.1,8.7l0,0c3.1,0.8,3.3,3.3,5.1,7.4l3.6,9.4h-10.2l-2-6.3c-2.1-5.8-3.3-7.2-7.1-7.2h-2
		v13.5h-9.7V-15.3z M531.5-1.1h2.6c3.1,0,7.1-0.2,7.1-3.9c0-3.3-3.5-3.8-7.1-3.8h-2.6V-1.1z"/>
	<polygon id="polygon6792" fill="#FFFFFF" points="557.6,-15.3 567.3,-15.3 567.3,-1.3 567.5,-1.3 578.5,-15.3 590.2,-15.3 
		576.7,0.5 591.4,18.8 578.9,18.8 567.5,3.3 567.3,3.3 567.3,18.8 557.6,18.8 	"/>
	<polygon id="polygon6794" fill="none" stroke="#FFFFFF" stroke-width="3.363100e-02" stroke-miterlimit="10.433" points="
		557.6,-15.3 567.3,-15.3 567.3,-1.3 567.5,-1.3 578.5,-15.3 590.2,-15.3 576.7,0.5 591.4,18.8 578.9,18.8 567.5,3.3 567.3,3.3 
		567.3,18.8 557.6,18.8 	"/>
	<path id="path6796" fill="#FFFFFF" d="M412,65l0.5,0.2l0.5,0.3l0.5,0.2l0.5,0.2l0.7,0.2l0.5,0.2l0.7,0.3h0.7l0.5,0.2l0.7,0.2
		l0.8,0.2h0.7l0.7,0.2h0.7h0.8h0.7c3.3,0,6.1-0.5,6.1-3.3c0-6.4-17.3-2.3-17.3-14.6c0-8.2,8.6-10.4,16-10.4c3.5,0,6.9,0.3,9.4,1.2
		l-0.7,7.1c-2.5-1.2-5.3-1.6-8.1-1.6c-2.5,0-6.6,0.3-6.6,3.3c0,5.4,17.3,1.8,17.3,14c0,8.9-7.9,11.2-16.1,11.2
		c-3.3,0-7.6-0.5-10.7-1.5L412,65z"/>
	<path id="path6798" fill="none" stroke="#FFFFFF" stroke-width="0.5535" stroke-miterlimit="10.433" d="M412,65l0.5,0.2l0.5,0.3
		l0.5,0.2l0.5,0.2l0.7,0.2l0.5,0.2l0.7,0.3h0.7l0.5,0.2l0.7,0.2l0.8,0.2h0.7l0.7,0.2h0.7h0.8h0.7c3.3,0,6.1-0.5,6.1-3.3
		c0-6.4-17.3-2.3-17.3-14.6c0-8.2,8.6-10.4,16-10.4c3.5,0,6.9,0.3,9.4,1.2l-0.7,7.1c-2.5-1.2-5.3-1.6-8.1-1.6
		c-2.5,0-6.6,0.3-6.6,3.3c0,5.4,17.3,1.8,17.3,14c0,8.9-7.9,11.2-16.1,11.2c-3.3,0-7.6-0.5-10.7-1.5L412,65z"/>
	<polygon id="polygon6800" fill="#FFFFFF" points="443.9,39.4 469.6,39.4 469.6,45.8 453.6,45.8 453.6,52.7 468.8,52.7 468.8,59.3 
		453.6,59.3 453.6,66.9 470.1,66.9 470.1,73.4 443.9,73.4 	"/>
	<polygon id="polygon6802" fill="none" stroke="#FFFFFF" stroke-width="3.363100e-02" stroke-miterlimit="10.433" points="
		443.9,39.4 469.6,39.4 469.6,45.8 453.6,45.8 453.6,52.7 468.8,52.7 468.8,59.3 453.6,59.3 453.6,66.9 470.1,66.9 470.1,73.4 
		443.9,73.4 	"/>
	<path id="path6804" fill="#FFFFFF" d="M476.3,39.4h17.3c6.4,0,11.7,2.8,11.7,8.6c0,4.6-2.3,7.6-6.9,8.7l0,0
		c3.1,0.8,3.3,3.5,5.1,7.6l3.6,9.2h-10.2l-2.1-6.3c-1.8-5.8-3.1-7.2-6.7-7.2h-2v13.5h-9.7V39.4z M486,53.5h2.5
		c3.1,0,7.1-0.2,7.1-3.9c0-3.1-3.3-3.8-7.1-3.8H486V53.5z"/>
	<path id="path6808" fill="none" stroke="#FFFFFF" stroke-width="0.5535" stroke-miterlimit="10.433" d="M476.3,39.4h17.3
		c6.4,0,11.7,2.8,11.7,8.6c0,4.6-2.3,7.6-6.9,8.7l0,0c3.1,0.8,3.3,3.5,5.1,7.6l3.6,9.2h-10.2l-2.1-6.3c-1.8-5.8-3.1-7.2-6.7-7.2h-2
		v13.5h-9.7V39.4z M486,53.5h2.5c3.1,0,7.1-0.2,7.1-3.9c0-3.1-3.3-3.8-7.1-3.8H486V53.5z"/>
	<polygon id="polygon6812" fill="#FFFFFF" points="509.2,39.4 519.6,39.4 527.7,66 527.8,66 535.9,39.4 545.8,39.4 533.4,73.4 
		521.4,73.4 	"/>
	<polygon id="polygon6814" fill="none" stroke="#FFFFFF" stroke-width="3.363100e-02" stroke-miterlimit="10.433" points="
		509.2,39.4 519.6,39.4 527.7,66 527.8,66 535.9,39.4 545.8,39.4 533.4,73.4 521.4,73.4 	"/>
	<polygon id="polygon6816" fill="#FFFFFF" points="550.9,73.4 560.4,73.4 560.4,39.4 550.9,39.4 	"/>
	<polygon id="polygon6818" fill="none" stroke="#FFFFFF" stroke-width="3.363100e-02" stroke-miterlimit="10.433" points="
		550.9,73.4 560.4,73.4 560.4,39.4 550.9,39.4 	"/>
	<path id="path6820" fill="#FFFFFF" d="M598.6,72.6l-0.5,0.2l-0.7,0.2H597l-0.5,0.2l-0.7,0.2h-0.5l-0.7,0.2H594l-0.7,0.2h-0.7
		l-0.3,0.2h-0.5h-0.3h-0.3h-0.5l-0.3,0.2h-0.5h-0.3h-0.5h-0.3h-0.5h-0.5c-9.7,0-20.9-4.6-20.9-17.3c0-12,8.9-17.8,20.9-17.8
		c3.6,0,7.2,0.7,10.7,1.6l-0.7,7.4c-3.1-1.6-6.3-2.5-9.5-2.5c-6.7,0-11.4,4.8-11.4,11.2c0,6.6,5.1,10.5,12.2,10.5
		c3.1,0,6.4-0.8,9.1-1.6L598.6,72.6z"/>
	<path id="path6822" fill="none" stroke="#FFFFFF" stroke-width="0.5535" stroke-miterlimit="10.433" d="M598.6,72.6l-0.5,0.2
		l-0.7,0.2H597l-0.5,0.2l-0.7,0.2h-0.5l-0.7,0.2H594l-0.7,0.2h-0.7l-0.3,0.2h-0.5h-0.3h-0.3h-0.5l-0.3,0.2h-0.5h-0.3h-0.5h-0.3h-0.5
		h-0.5c-9.7,0-20.9-4.6-20.9-17.3c0-12,8.9-17.8,20.9-17.8c3.6,0,7.2,0.7,10.7,1.6l-0.7,7.4c-3.1-1.6-6.3-2.5-9.5-2.5
		c-6.7,0-11.4,4.8-11.4,11.2c0,6.6,5.1,10.5,12.2,10.5c3.1,0,6.4-0.8,9.1-1.6L598.6,72.6z"/>
	<polygon id="polygon6824" fill="#FFFFFF" points="603.2,39.4 628.9,39.4 628.9,45.8 612.9,45.8 612.9,52.7 628.1,52.7 628.1,59.3 
		612.9,59.3 612.9,66.9 629.5,66.9 629.5,73.4 603.2,73.4 	"/>
	<polygon id="polygon6826" fill="none" stroke="#FFFFFF" stroke-width="3.363100e-02" stroke-miterlimit="10.433" points="
		603.2,39.4 628.9,39.4 628.9,45.8 612.9,45.8 612.9,52.7 628.1,52.7 628.1,59.3 612.9,59.3 612.9,66.9 629.5,66.9 629.5,73.4 
		603.2,73.4 	"/>
</g>
</svg>
